<?xml version="1.0" encoding="UTF-8" standalone="no"?>
<!-- Created with Inkscape (http://www.inkscape.org/) -->

<svg
   xmlns:dc="http://purl.org/dc/elements/1.1/"
   xmlns:cc="http://creativecommons.org/ns#"
   xmlns:rdf="http://www.w3.org/1999/02/22-rdf-syntax-ns#"
   xmlns:svg="http://www.w3.org/2000/svg"
   xmlns="http://www.w3.org/2000/svg"
   xmlns:sodipodi="http://sodipodi.sourceforge.net/DTD/sodipodi-0.dtd"
   xmlns:inkscape="http://www.inkscape.org/namespaces/inkscape"
   width="247.72546"
   height="371.68213"
   id="svg2"
   version="1.1"
   inkscape:version="0.48.5 r10040"
   sodipodi:docname="protocol.svg">
  <defs
     id="defs4" />
  <sodipodi:namedview
     id="base"
     pagecolor="#ffffff"
     bordercolor="#666666"
     borderopacity="1.0"
     inkscape:pageopacity="0.0"
     inkscape:pageshadow="2"
     inkscape:zoom="0.70710678"
     inkscape:cx="-28.937123"
     inkscape:cy="405.86542"
     inkscape:document-units="px"
     inkscape:current-layer="layer1"
     showgrid="false"
     showguides="false"
     inkscape:guide-bbox="true"
     inkscape:window-width="1920"
     inkscape:window-height="1028"
     inkscape:window-x="-8"
     inkscape:window-y="-8"
     inkscape:window-maximized="1"
     fit-margin-top="0"
     fit-margin-left="0"
     fit-margin-right="0"
     fit-margin-bottom="0">
    <sodipodi:guide
       orientation="1,0"
       position="26.214288,272.82497"
       id="guide3769" />
    <sodipodi:guide
       orientation="1,0"
       position="142.54538,260.44883"
       id="guide3776" />
    <sodipodi:guide
       orientation="0.25881905,0.96592583"
       position="26.214288,323.3253"
       id="guide5090" />
    <sodipodi:guide
       orientation="1,0"
       position="140.04557,275.42434"
       id="guide5094" />
    <sodipodi:guide
       orientation="1,0"
       position="28.714574,294.693"
       id="guide5096" />
    <sodipodi:guide
       orientation="-0.25881905,0.96592583"
       position="142.54538,290.1852"
       id="guide5098" />
    <sodipodi:guide
       orientation="0.25881905,0.96592583"
       position="26.214288,257.05062"
       id="guide5100" />
    <sodipodi:guide
       orientation="-0.25881905,0.96592583"
       position="142.54538,223.79148"
       id="guide5102" />
    <sodipodi:guide
       orientation="0.25881905,0.96592583"
       position="28.714574,189.97491"
       id="guide5104" />
  </sodipodi:namedview>
  <metadata
     id="metadata7">
    <rdf:RDF>
      <cc:Work
         rdf:about="">
        <dc:format>image/svg+xml</dc:format>
        <dc:type
           rdf:resource="http://purl.org/dc/dcmitype/StillImage" />
        <dc:title></dc:title>
      </cc:Work>
    </rdf:RDF>
  </metadata>
  <g
     inkscape:label="Layer 1"
     inkscape:groupmode="layer"
     id="layer1"
     transform="translate(-68.071426,-68.862183)">
    <path
       style="fill:none;stroke:#000000;stroke-width:1;stroke-linecap:square;stroke-linejoin:miter;stroke-miterlimit:4;stroke-opacity:1;stroke-dasharray:none"
       d="m 106.14384,114.95043 0,182.59591"
       id="path2993"
       inkscape:connector-curvature="0" />
    <path
       inkscape:connector-curvature="0"
       id="path2995"
       d="m 276.12091,114.95043 0,182.59591"
       style="fill:none;stroke:#000000;stroke-width:1;stroke-linecap:square;stroke-linejoin:miter;stroke-miterlimit:4;stroke-opacity:1;stroke-dasharray:none" />
    <g
       transform="scale(1.0002245,0.99977553)"
       style="font-size:17.52985191px;font-style:normal;font-variant:normal;font-weight:normal;font-stretch:normal;line-height:125%;letter-spacing:0px;word-spacing:0px;fill:#000000;fill-opacity:1;stroke:none;font-family:Futura PT Book;-inkscape-font-specification:Futura PT Book"
       id="text2989">
      <path
         d="m 264.05231,96.916555 c 0.25528,0.03652 0.58177,0.06866 0.97947,0.09641 0.3977,0.02775 0.86005,0.04236 1.38703,0.04382 0.9623,0.0011 1.78108,-0.08874 2.45634,-0.269518 0.67525,-0.180774 1.21794,-0.459057 1.62807,-0.834848 0.30237,-0.288142 0.54341,-0.627779 0.72309,-1.01891 0.17967,-0.391128 0.2717,-0.840324 0.2761,-1.34759 -0.0314,-0.872825 -0.29729,-1.550636 -0.7976,-2.033436 -0.50033,-0.48279 -1.04667,-0.79248 -1.63902,-0.929071 l 0,-0.03506 c 0.62777,-0.236278 1.11641,-0.583219 1.46591,-1.040822 0.34949,-0.457588 0.52698,-0.975442 0.53247,-1.553563 -0.003,-0.46489 -0.0895,-0.871724 -0.26076,-1.2205 -0.17128,-0.348756 -0.41159,-0.637264 -0.7209,-0.865525 -0.36192,-0.296532 -0.80382,-0.514192 -1.32568,-0.652979 -0.52188,-0.138765 -1.16098,-0.207422 -1.9173,-0.205973 -0.54233,0.0015 -1.05726,0.02485 -1.5448,0.07012 -0.48755,0.0453 -0.90168,0.103728 -1.24242,0.175296 z m 1.52508,-10.587894 c 0.11979,-0.02738 0.28778,-0.05148 0.50398,-0.07231 0.21619,-0.02081 0.49813,-0.03176 0.8458,-0.03287 0.78299,-0.0062 1.40821,0.142074 1.87567,0.444814 0.46745,0.302762 0.70702,0.797243 0.71872,1.483445 -0.006,0.581042 -0.23082,1.053611 -0.67489,1.417708 -0.44409,0.364112 -1.07224,0.551825 -1.88444,0.56314 l -1.38484,0 z m 0,4.960884 1.26214,0 c 0.85565,-0.0058 1.57218,0.17238 2.14957,0.534653 0.57737,0.362284 0.87757,0.943683 0.90058,1.744199 -0.0278,0.847267 -0.33599,1.444735 -0.92469,1.792404 -0.58871,0.347672 -1.29135,0.515664 -2.10794,0.503977 -0.27244,3.66e-4 -0.51639,-0.0047 -0.73186,-0.01534 -0.21547,-0.01059 -0.39807,-0.02885 -0.5478,-0.05478 z"
         style="text-align:center;text-anchor:middle;font-family:Myriad Pro;-inkscape-font-specification:Myriad Pro"
         id="path5947" />
      <path
         d="m 277.11146,88.274449 c -1.20297,0.01023 -2.19778,0.406112 -2.98442,1.187633 -0.78664,0.781536 -1.1942,1.887362 -1.22269,3.317481 0.0259,1.355262 0.41669,2.417995 1.17229,3.188201 0.7556,0.770208 1.72046,1.162433 2.89458,1.176676 1.07332,0.0084 2.0338,-0.350227 2.88144,-1.075881 0.84762,-0.725652 1.29535,-1.868728 1.3432,-3.429233 -0.0179,-1.316907 -0.39406,-2.368684 -1.12847,-3.155332 -0.73442,-0.786634 -1.71973,-1.189815 -2.95593,-1.209545 z m -0.0351,1.156956 c 0.9035,0.04602 1.55502,0.409762 1.95455,1.091219 0.39953,0.68147 0.59527,1.404566 0.58725,2.169291 -0.0154,0.973263 -0.26076,1.761365 -0.73625,2.364308 -0.47549,0.602948 -1.08903,0.913368 -1.84061,0.931262 -0.76692,-0.01972 -1.38484,-0.330871 -1.85376,-0.933453 -0.46892,-0.602578 -0.70995,-1.378263 -0.72309,-2.327058 -0.005,-0.842877 0.20232,-1.593729 0.6223,-2.252557 0.41998,-0.658815 1.08318,-1.006485 1.98961,-1.043012 z"
         style="text-align:center;text-anchor:middle;font-family:Myriad Pro;-inkscape-font-specification:Myriad Pro"
         id="path5949" />
      <path
         d="m 284.4009,96.951614 0.0701,-1.40237 0.0526,0 c 0.31773,0.557297 0.71652,0.9634 1.1964,1.218309 0.47987,0.25491 1.02767,0.380539 1.6434,0.376887 0.98677,3.65e-4 1.85741,-0.377252 2.61192,-1.132852 0.75449,-0.755598 1.15183,-1.891371 1.19201,-3.407321 -0.01,-1.307778 -0.34074,-2.35152 -0.99261,-3.13123 -0.65189,-0.779695 -1.51304,-1.179224 -2.58343,-1.198588 -0.68476,0.0059 -1.26981,0.14755 -1.75515,0.425094 -0.48536,0.27756 -0.86444,0.655908 -1.13724,1.135043 l -0.0351,0 0,-5.329006 -1.52508,0 0,10.254831 c -7.3e-4,0.384923 -0.008,0.772036 -0.0219,1.161338 -0.0139,0.389304 -0.0299,0.732592 -0.0482,1.029865 z m 0.26294,-4.925825 c 0.001,-0.122702 0.0117,-0.236645 0.0307,-0.341828 0.019,-0.105172 0.038,-0.201585 0.057,-0.289238 0.17018,-0.592714 0.46964,-1.055058 0.89839,-1.387032 0.42874,-0.33196 0.91227,-0.500682 1.45058,-0.506168 0.82608,0.02521 1.45276,0.338548 1.88005,0.940027 0.42728,0.601491 0.64202,1.339926 0.64422,2.215306 -0.007,0.98714 -0.23447,1.773781 -0.68366,2.359925 -0.4492,0.586149 -1.08027,0.886343 -1.8932,0.900585 -0.56862,-0.0084 -1.05726,-0.17566 -1.46591,-0.501785 -0.40867,-0.326123 -0.69133,-0.760711 -0.848,-1.303766 -0.0183,-0.08801 -0.0343,-0.179311 -0.0482,-0.273901 -0.0139,-0.09458 -0.0212,-0.190266 -0.0219,-0.287047 z"
         style="text-align:center;text-anchor:middle;font-family:Myriad Pro;-inkscape-font-specification:Myriad Pro"
         id="path5951" />
    </g>
    <g
       transform="scale(1.0002246,0.99977549)"
       style="font-size:17.52985191px;font-style:normal;font-variant:normal;font-weight:normal;font-stretch:normal;line-height:125%;letter-spacing:0px;word-spacing:0px;fill:#000000;fill-opacity:1;stroke:none;font-family:Futura PT Book;-inkscape-font-specification:Futura PT Book"
       id="text2985">
      <path
         d="m 96.030699,93.26547 1.262133,3.71628 1.630256,0 -4.031814,-11.814968 -1.840611,0 -4.014285,11.814968 1.577667,0 1.227074,-3.71628 z m -3.874047,-1.192015 1.156955,-3.418277 c 0.224959,-0.721627 0.423628,-1.434498 0.596008,-2.138614 l 0.03506,0 c 0.08582,0.340742 0.177116,0.689143 0.2739,1.045204 0.09677,0.356079 0.209985,0.726392 0.339637,1.11094 l 1.156955,3.400747 z"
         style="text-align:center;text-anchor:middle;font-family:Myriad Pro;-inkscape-font-specification:Myriad Pro"
         id="path5936" />
      <path
         d="m 100.59429,96.98175 1.54261,0 0,-12.446034 -1.54261,0 z"
         style="text-align:center;text-anchor:middle;font-family:Myriad Pro;-inkscape-font-specification:Myriad Pro"
         id="path5938" />
      <path
         d="m 106.2797,96.98175 0,-8.484339 -1.54261,0 0,8.484339 z m -0.77131,-11.832497 c -0.28559,0.0062 -0.51639,0.09898 -0.69242,0.278283 -0.17603,0.179325 -0.26659,0.40794 -0.27171,0.685846 0.005,0.269529 0.0917,0.493031 0.26076,0.670508 0.16908,0.177498 0.39186,0.269528 0.66831,0.276092 0.31042,-0.0066 0.55291,-0.09859 0.72748,-0.276092 0.17457,-0.177477 0.25929,-0.400979 0.25418,-0.670508 -0.003,-0.277906 -0.0887,-0.506522 -0.25637,-0.685847 -0.16763,-0.179301 -0.3977,-0.272062 -0.69023,-0.278282 z"
         style="text-align:center;text-anchor:middle;font-family:Myriad Pro;-inkscape-font-specification:Myriad Pro"
         id="path5940" />
      <path
         d="m 114.63042,95.509262 c -0.21584,0.101892 -0.47659,0.196114 -0.78225,0.282665 -0.30568,0.08655 -0.676,0.132569 -1.11094,0.138046 -0.85896,-0.0095 -1.56015,-0.29289 -2.10356,-0.850187 -0.54342,-0.557294 -0.82389,-1.331518 -0.84142,-2.322675 0.003,-0.908249 0.25965,-1.664214 0.76911,-2.267896 0.50945,-0.60367 1.25227,-0.917011 2.22845,-0.940026 0.41961,0.0037 0.77678,0.04456 1.0715,0.122707 0.29471,0.07816 0.53355,0.171652 0.71653,0.280474 l 0.35059,-1.192014 c -0.21621,-0.110282 -0.51129,-0.209617 -0.88525,-0.298004 -0.37397,-0.08837 -0.79176,-0.135116 -1.25337,-0.140237 -1.40164,0.02448 -2.50747,0.44884 -3.31748,1.27309 -0.81001,0.824264 -1.22342,1.901604 -1.24022,3.232024 0.0161,1.315455 0.40026,2.361389 1.15257,3.137803 0.75232,0.776417 1.77634,1.173755 3.07207,1.192015 0.57482,-0.0073 1.07295,-0.06282 1.4944,-0.166532 0.42144,-0.103717 0.73551,-0.211816 0.94222,-0.324298 z"
         style="text-align:center;text-anchor:middle;font-family:Myriad Pro;-inkscape-font-specification:Myriad Pro"
         id="path5942" />
      <path
         d="m 123.50517,93.020055 c 0.01,-0.07925 0.0208,-0.17931 0.0329,-0.300195 0.012,-0.120877 0.0186,-0.260384 0.0197,-0.41852 0.008,-0.540491 -0.0898,-1.117021 -0.29346,-1.72959 -0.20365,-0.612556 -0.56117,-1.138444 -1.07255,-1.577666 -0.5114,-0.439206 -1.2247,-0.669039 -2.13991,-0.689498 -1.24717,0.03069 -2.21933,0.473308 -2.9165,1.327869 -0.69716,0.854576 -1.05141,1.937029 -1.06273,3.247363 0.0106,1.297925 0.37944,2.330712 1.10656,3.098361 0.72711,0.767652 1.74894,1.160608 3.06549,1.178868 0.67416,-0.0066 1.24533,-0.06355 1.71352,-0.170914 0.46818,-0.107369 0.83777,-0.225694 1.10875,-0.354975 l -0.26294,-1.104366 c -0.28194,0.12563 -0.6077,0.229347 -0.97728,0.31115 -0.36959,0.08181 -0.82682,0.124169 -1.37169,0.12709 -0.79395,0.0077 -1.46738,-0.222406 -2.02029,-0.690229 -0.55292,-0.46782 -0.84946,-1.219402 -0.88963,-2.254748 z m -5.94254,-1.104366 c 0.0548,-0.572264 0.26952,-1.123717 0.64421,-1.654359 0.3747,-0.53063 0.94879,-0.814755 1.72229,-0.852378 0.84945,0.0431 1.42501,0.338183 1.72667,0.885246 0.30165,0.547076 0.43896,1.087573 0.41194,1.621491 z"
         style="text-align:center;text-anchor:middle;font-family:Myriad Pro;-inkscape-font-specification:Myriad Pro"
         id="path5944" />
    </g>
    <rect
       style="color:#000000;fill:none;stroke:#000000;stroke-width:1;stroke-miterlimit:4;stroke-opacity:1;stroke-dasharray:none;marker:none;visibility:visible;display:inline;overflow:visible;enable-background:accumulate"
       id="rect2997"
       width="75.144806"
       height="44.858002"
       x="68.571426"
       y="69.362183" />
    <rect
       y="69.362183"
       x="240.15208"
       height="44.858002"
       width="75.144806"
       id="rect3767"
       style="color:#000000;fill:none;stroke:#000000;stroke-width:1;stroke-miterlimit:4;stroke-opacity:1;stroke-dasharray:none;marker:none;visibility:visible;display:inline;overflow:visible;enable-background:accumulate" />
    <g
       id="g5203"
       transform="matrix(1.4611491,0,0,1.4604931,-31.62165,-31.940807)">
      <path
         sodipodi:nodetypes="cc"
         inkscape:connector-curvature="0"
         id="path4446"
         d="m 96.786,117.88894 108.67363,29.11901"
         style="fill:none;stroke:#000000;stroke-width:0.68454653px;stroke-linecap:round;stroke-linejoin:bevel;stroke-opacity:1" />
      <path
         style="fill:#000000;fill-opacity:1;stroke:#000000;stroke-width:0.68454653;stroke-linejoin:round;stroke-miterlimit:4;stroke-opacity:1;stroke-dasharray:none"
         d="m 197.18377,148.3729 10.93323,-0.65291 -4.5696,-3.02111 -4.56971,-3.02111 z"
         id="path5092"
         inkscape:connector-curvature="0"
         sodipodi:nodetypes="ccccc" />
    </g>
    <g
       id="g5207"
       transform="matrix(1.4611491,0,0,1.4604931,-31.62165,-31.940807)">
      <path
         sodipodi:nodetypes="cc"
         inkscape:connector-curvature="0"
         id="path4442"
         d="m 96.786,184.16362 111.331,29.83105"
         style="fill:none;stroke:#000000;stroke-width:0.68454653px;stroke-linecap:round;stroke-linejoin:bevel;stroke-opacity:1" />
      <path
         sodipodi:nodetypes="ccccc"
         inkscape:connector-curvature="0"
         id="path5106"
         d="m 197.18377,214.64758 10.93323,-0.65291 -4.5696,-3.02111 -4.56971,-3.02111 z"
         style="fill:#000000;fill-opacity:1;stroke:#000000;stroke-width:0.68454653;stroke-linejoin:round;stroke-miterlimit:4;stroke-opacity:1;stroke-dasharray:none" />
    </g>
    <g
       id="g5199"
       transform="matrix(1.4611491,0,0,1.4604931,-31.62165,-31.940807)">
      <path
         sodipodi:nodetypes="cc"
         inkscape:connector-curvature="0"
         id="path4444"
         d="M 208.117,151.02891 96.786,180.85997"
         style="fill:none;stroke:#000000;stroke-width:0.68454653px;stroke-linecap:round;stroke-linejoin:bevel;stroke-opacity:1" />
      <path
         style="fill:#000000;fill-opacity:1;stroke:#000000;stroke-width:0.68454653;stroke-linejoin:round;stroke-miterlimit:4;stroke-opacity:1;stroke-dasharray:none"
         d="m 107.71923,181.51288 -10.93323,-0.65291 4.5696,-3.02111 4.56971,-3.02111 z"
         id="path5112"
         inkscape:connector-curvature="0"
         sodipodi:nodetypes="ccccc" />
    </g>
    <g
       transform="matrix(0.96614272,0.25876095,-0.25887717,0.96570898,0,0)"
       style="font-size:12.00794888px;font-style:normal;font-variant:normal;font-weight:normal;font-stretch:normal;line-height:125%;letter-spacing:0px;word-spacing:0px;fill:#000000;fill-opacity:1;stroke:none;font-family:Futura PT Book;-inkscape-font-specification:Futura PT Book"
       id="text5116">
      <path
         d="m 212.82851,101.47386 1.02066,0 -0.50433,-8.093252 -1.33286,0 -1.44094,3.914541 c -0.18037,0.509084 -0.34197,0.988895 -0.48481,1.439435 -0.14285,0.450544 -0.26543,0.879322 -0.36774,1.286336 l -0.036,0 c -0.10232,-0.419022 -0.2219,-0.853804 -0.35874,-1.304348 -0.13684,-0.450539 -0.28944,-0.924346 -0.45779,-1.421423 l -1.3809,-3.914541 -1.33286,0 -0.56437,8.093252 0.99665,0 0.21614,-3.470251 c 0.0365,-0.616646 0.0685,-1.238549 0.0961,-1.865711 0.0275,-0.627151 0.0475,-1.198021 0.06,-1.712612 l 0.024,0 c 0.11483,0.480069 0.25141,0.981894 0.40977,1.505478 0.15835,0.523594 0.33396,1.070449 0.52684,1.640565 l 1.30885,3.854501 0.79252,0 1.42892,-3.926548 c 0.20388,-0.557358 0.3905,-1.090703 0.55987,-1.600039 0.16935,-0.509324 0.32295,-1.000643 0.4608,-1.473957 l 0.036,0 c -0.004,0.516342 0.007,1.08371 0.033,1.702105 0.026,0.618406 0.055,1.215794 0.0871,1.792164 z"
         style="font-style:normal;font-variant:normal;font-weight:normal;font-stretch:normal;font-family:Myriad Pro;-inkscape-font-specification:Myriad Pro"
         id="path6036" />
      <path
         d="m 216.39603,103.87545 0.66344,0 0,-5.073363 -0.58539,0 -1.10834,0.593193 0.13269,0.522947 0.88198,-0.476116 0.0156,0 z"
         style="font-size:7.80527687px;font-style:normal;font-variant:normal;font-weight:normal;font-stretch:normal;baseline-shift:sub;font-family:Myriad Pro;-inkscape-font-specification:Myriad Pro"
         id="path6038" />
      <path
         d="m 227.79607,97.427235 0,-0.720468 -6.19602,0 0,0.720468 z m 0,2.353528 0,-0.720468 -6.19602,0 0,0.720468 z"
         style="font-style:normal;font-variant:normal;font-weight:normal;font-stretch:normal;font-family:Myriad Pro;-inkscape-font-specification:Myriad Pro"
         id="path6040" />
      <path
         d="m 231.18952,101.47386 5.90784,0 0,-0.87657 -4.52694,0 0,-0.036 4.4669,-6.544249 0,-0.636413 -5.46355,0 0,0.876569 4.10667,0 0,0.03602 -4.49092,6.568259 z"
         style="font-style:normal;font-variant:normal;font-weight:normal;font-stretch:normal;font-family:Myriad Pro;-inkscape-font-specification:Myriad Pro"
         id="path6042" />
      <path
         d="m 240.75247,103.87545 c -0.0231,-0.12992 -0.0393,-0.27204 -0.0488,-0.42636 -0.009,-0.15431 -0.014,-0.31399 -0.0137,-0.47904 l 0,-1.41274 c 0.0123,-0.39562 -0.0826,-0.74783 -0.28489,-1.05662 -0.20229,-0.30879 -0.58604,-0.47172 -1.15126,-0.4888 -0.2405,0.001 -0.46783,0.0319 -0.68198,0.0917 -0.21416,0.0598 -0.4005,0.14115 -0.55905,0.24391 l 0.15611,0.4527 c 0.13512,-0.0868 0.2883,-0.15512 0.45953,-0.20488 0.17122,-0.0498 0.34586,-0.0751 0.52392,-0.0761 0.37383,0.0169 0.61352,0.12358 0.71905,0.32001 0.10553,0.19643 0.15204,0.38115 0.13952,0.55417 l 0,0.078 c -0.7332,-0.002 -1.2942,0.11708 -1.68299,0.35708 -0.3888,0.24002 -0.5849,0.5893 -0.58832,1.04785 3.3e-4,0.28424 0.0972,0.53335 0.29075,0.74734 0.1935,0.214 0.48164,0.32652 0.86442,0.33758 0.27058,-0.005 0.50408,-0.0615 0.70051,-0.16976 0.19643,-0.1083 0.34798,-0.23904 0.45466,-0.39221 l 0.0234,0 0.0546,0.47611 z m -0.72588,-1.27224 c -1.7e-4,0.0354 -0.004,0.0719 -0.0107,0.10927 -0.007,0.0374 -0.0164,0.0738 -0.0283,0.10927 -0.0551,0.16635 -0.15952,0.31172 -0.31318,0.43612 -0.15367,0.12439 -0.35367,0.18976 -0.60002,0.1961 -0.18066,4.9e-4 -0.33254,-0.0532 -0.45563,-0.16098 -0.12309,-0.10781 -0.18716,-0.27269 -0.1922,-0.49465 0.0198,-0.35741 0.19285,-0.59287 0.51904,-0.70637 0.32619,-0.1135 0.68653,-0.16163 1.08102,-0.1444 z"
         style="font-size:7.80527687px;baseline-shift:sub"
         id="path6044" />
      <path
         d="m 243.07395,103.87545 0.66344,0 0,-5.073363 -0.58539,0 -1.10833,0.593193 0.13269,0.522947 0.88198,-0.476116 0.0156,0 z"
         style="font-size:7.80527687px;baseline-shift:sub"
         id="path6046" />
    </g>
    <g
       transform="matrix(0.96614272,-0.25876095,0.25887717,0.96570898,0,0)"
       style="font-size:12.00794888px;font-style:normal;font-variant:normal;font-weight:normal;font-stretch:normal;line-height:125%;letter-spacing:0px;word-spacing:0px;fill:#000000;fill-opacity:1;stroke:none;font-family:Futura PT Book;-inkscape-font-specification:Futura PT Book"
       id="text5120">
      <path
         d="m 103.75764,247.55313 1.02066,0 -0.50432,-8.09325 -1.33287,0 -1.44094,3.91454 c -0.18037,0.50908 -0.34197,0.98889 -0.48481,1.43943 -0.14285,0.45055 -0.26543,0.87933 -0.36774,1.28634 l -0.036,0 c -0.10232,-0.41902 -0.2219,-0.8538 -0.35874,-1.30435 -0.13684,-0.45054 -0.289437,-0.92434 -0.457792,-1.42142 l -1.380896,-3.91454 -1.332866,0 -0.564366,8.09325 0.996647,0 0.21614,-3.47025 c 0.03652,-0.61665 0.06854,-1.23855 0.09606,-1.86571 0.02752,-0.62715 0.04753,-1.19802 0.06004,-1.71261 l 0.02402,0 c 0.114822,0.48006 0.251411,0.98189 0.409766,1.50547 0.15835,0.5236 0.333964,1.07045 0.526842,1.64057 l 1.308848,3.8545 0.79252,0 1.42892,-3.92655 c 0.20388,-0.55736 0.3905,-1.0907 0.55987,-1.60004 0.16935,-0.50932 0.32295,-1.00064 0.4608,-1.47395 l 0.036,0 c -0.004,0.51634 0.007,1.08371 0.033,1.7021 0.026,0.61841 0.055,1.21579 0.0871,1.79216 z"
         style="font-family:Myriad Pro;-inkscape-font-specification:Myriad Pro"
         id="path6015" />
      <path
         d="m 109.07352,249.95472 0,-0.56978 -2.27912,0 0,-0.0156 0.40587,-0.37465 c 0.54067,-0.5057 0.96573,-0.97141 1.27517,-1.39712 0.30944,-0.42571 0.46717,-0.868 0.47319,-1.32688 0.004,-0.37904 -0.1187,-0.71564 -0.36684,-1.0098 -0.24814,-0.29415 -0.64361,-0.44928 -1.18639,-0.46538 -0.29399,0.003 -0.56262,0.0517 -0.80588,0.14635 -0.24326,0.0946 -0.45335,0.21757 -0.63027,0.36879 l 0.21854,0.48392 c 0.11855,-0.10325 0.26977,-0.19919 0.45368,-0.28781 0.18391,-0.0886 0.39172,-0.13578 0.62344,-0.14147 0.37318,0.009 0.63563,0.10992 0.78735,0.30245 0.15171,0.19253 0.22488,0.42213 0.21952,0.6888 -0.001,0.36815 -0.15497,0.75191 -0.46148,1.15127 -0.30652,0.39936 -0.78231,0.9002 -1.42738,1.50249 l -0.53855,0.52295 0,0.42148 z"
         style="font-size:7.80527687px;baseline-shift:sub;font-family:Myriad Pro;-inkscape-font-specification:Myriad Pro"
         id="path6017" />
      <path
         d="m 118.7252,243.5065 0,-0.72046 -6.19602,0 0,0.72046 z m 0,2.35353 0,-0.72047 -6.19602,0 0,0.72047 z"
         style="font-family:Myriad Pro;-inkscape-font-specification:Myriad Pro"
         id="path6019" />
      <path
         d="m 122.11865,247.55313 5.90784,0 0,-0.87657 -4.52694,0 0,-0.036 4.4669,-6.54425 0,-0.63641 -5.46355,0 0,0.87657 4.10667,0 0,0.036 -4.49092,6.56826 z"
         style="font-family:Myriad Pro;-inkscape-font-specification:Myriad Pro"
         id="path6021" />
      <path
         d="m 129.52737,249.95472 0.0312,-0.62441 0.0234,0 c 0.14147,0.24814 0.31903,0.42896 0.5327,0.54246 0.21367,0.1135 0.45758,0.16943 0.73174,0.16781 0.43936,1.6e-4 0.82702,-0.16798 1.16297,-0.50441 0.33594,-0.33644 0.51286,-0.84215 0.53075,-1.51713 -0.004,-0.5823 -0.15172,-1.04703 -0.44197,-1.3942 -0.29026,-0.34717 -0.67368,-0.52506 -1.15029,-0.53368 -0.30489,0.003 -0.56538,0.0657 -0.78149,0.18927 -0.21611,0.12359 -0.38489,0.29205 -0.50636,0.50539 l -0.0156,0 0,-2.37277 -0.67905,0 0,4.56602 c -3.3e-4,0.17139 -0.004,0.34376 -0.01,0.5171 -0.006,0.17334 -0.0133,0.32619 -0.0215,0.45855 z m 0.11708,-2.19325 c 6.5e-4,-0.0546 0.005,-0.10537 0.0137,-0.1522 0.008,-0.0468 0.0169,-0.0898 0.0254,-0.12879 0.0758,-0.26391 0.20911,-0.46977 0.40001,-0.61758 0.1909,-0.14781 0.40619,-0.22294 0.64588,-0.22538 0.36782,0.0112 0.64685,0.15074 0.83711,0.41855 0.19024,0.26782 0.28586,0.59661 0.28684,0.98638 -0.003,0.43953 -0.1044,0.78979 -0.30441,1.05077 -0.20001,0.26099 -0.48099,0.39465 -0.84296,0.401 -0.25318,-0.004 -0.47075,-0.0782 -0.6527,-0.22343 -0.18196,-0.14521 -0.30782,-0.33871 -0.37758,-0.58051 -0.008,-0.0392 -0.0153,-0.0798 -0.0215,-0.12195 -0.006,-0.0421 -0.009,-0.0847 -0.01,-0.12781 z"
         style="font-size:7.80527687px;baseline-shift:sub"
         id="path6023" />
      <path
         d="m 134.67385,249.95472 0.66344,0 0,-5.07336 -0.58539,0 -1.10834,0.59319 0.13269,0.52295 0.88199,-0.47612 0.0156,0 z"
         style="font-size:7.80527687px;baseline-shift:sub"
         id="path6025" />
      <path
         d="m 142.59163,241.16498 0,2.82184 -2.71376,0 0,0.72046 2.71376,0 0,2.84585 0.7685,0 0,-2.84585 2.71376,0 0,-0.72046 -2.71376,0 0,-2.82184 z"
         style="font-family:Myriad Pro;-inkscape-font-specification:Myriad Pro"
         id="path6027" />
      <path
         d="m 151.01635,246.95274 c 0.22114,0.2354 0.48431,0.41602 0.78951,0.54185 0.3052,0.12583 0.65842,0.18938 1.05969,0.19063 0.66668,-0.003 1.24555,-0.21614 1.73663,-0.63942 0.49106,-0.42327 0.74873,-1.03867 0.773,-1.8462 -0.017,-0.66668 -0.19914,-1.19152 -0.54636,-1.57452 -0.34723,-0.38299 -0.75749,-0.62265 -1.2308,-0.71897 l 0,-0.048 c 0.28619,-0.14183 0.53335,-0.37448 0.74149,-0.69795 0.20812,-0.32345 0.3172,-0.71521 0.32721,-1.17526 -0.0133,-0.63341 -0.2149,-1.13773 -0.60489,-1.51298 -0.39001,-0.37524 -0.88884,-0.56736 -1.49648,-0.57638 -0.38175,0.003 -0.71096,0.0606 -0.98764,0.17411 -0.27668,0.11359 -0.51583,0.26769 -0.71746,0.4623 -0.23716,0.20314 -0.44429,0.52035 -0.62141,0.95162 -0.17711,0.43129 -0.27017,1.05469 -0.27918,1.87022 l 0,5.53559 c -0.002,0.42878 0.0105,0.82603 0.036,1.19177 0.0255,0.36574 0.0735,0.64892 0.14409,0.84955 l 0.98464,0 c -0.058,-0.26317 -0.0951,-0.60139 -0.11107,-1.01465 -0.016,-0.41327 -0.023,-0.79952 -0.021,-1.15876 l 0,-0.80452 z m -0.036,-4.71906 c 0.001,-0.82903 0.12784,-1.45244 0.37975,-1.87022 0.25191,-0.41776 0.62165,-0.6269 1.10922,-0.6274 0.36098,0.005 0.65367,0.13284 0.87807,0.38275 0.22439,0.24991 0.33997,0.59064 0.34673,1.02216 -10e-6,0.39651 -0.11408,0.74124 -0.34223,1.03417 -0.22815,0.29295 -0.57037,0.46055 -1.02666,0.50283 -0.0355,0.006 -0.0695,0.0118 -0.10207,0.0165 -0.0325,0.005 -0.0665,0.007 -0.10206,0.007 l 0,0.72047 c 0.054,-7.5e-4 0.10806,-0.002 0.1621,-0.005 0.054,-0.002 0.10807,-7.5e-4 0.16211,0.005 0.54034,0.0178 0.98463,0.17437 1.33286,0.4698 0.34822,0.29545 0.52834,0.73123 0.54035,1.30735 -0.009,0.48982 -0.16261,0.88808 -0.4623,1.19478 -0.2997,0.3067 -0.69395,0.4648 -1.18277,0.47431 -0.41577,-0.0123 -0.767,-0.11683 -1.05368,-0.31371 -0.28669,-0.19687 -0.49983,-0.41251 -0.63942,-0.64692 z"
         style="font-family:Myriad Pro;-inkscape-font-specification:Myriad Pro"
         id="path6029" />
      <path
         d="m 163.77528,247.55313 1.02066,0 -0.50433,-8.09325 -1.33286,0 -1.44094,3.91454 c -0.18037,0.50908 -0.34197,0.98889 -0.48481,1.43943 -0.14285,0.45055 -0.26543,0.87933 -0.36774,1.28634 l -0.036,0 c -0.10232,-0.41902 -0.2219,-0.8538 -0.35874,-1.30435 -0.13684,-0.45054 -0.28944,-0.92434 -0.45779,-1.42142 l -1.3809,-3.91454 -1.33286,0 -0.56437,8.09325 0.99665,0 0.21614,-3.47025 c 0.0365,-0.61665 0.0685,-1.23855 0.0961,-1.86571 0.0275,-0.62715 0.0475,-1.19802 0.06,-1.71261 l 0.024,0 c 0.11483,0.48006 0.25141,0.98189 0.40977,1.50547 0.15835,0.5236 0.33396,1.07045 0.52684,1.64057 l 1.30885,3.8545 0.79252,0 1.42892,-3.92655 c 0.20388,-0.55736 0.3905,-1.0907 0.55987,-1.60004 0.16935,-0.50932 0.32295,-1.00064 0.4608,-1.47395 l 0.036,0 c -0.004,0.51634 0.007,1.08371 0.033,1.7021 0.026,0.61841 0.055,1.21579 0.0871,1.79216 z"
         style="font-family:Myriad Pro;-inkscape-font-specification:Myriad Pro"
         id="path6031" />
      <path
         d="m 167.34279,249.95472 0.66344,0 0,-5.07336 -0.58539,0 -1.10833,0.59319 0.13269,0.52295 0.88198,-0.47612 0.0156,0 z"
         style="font-size:7.80527687px;baseline-shift:sub"
         id="path6033" />
    </g>
    <g
       transform="matrix(0.96614272,0.25876095,-0.25887717,0.96570898,0,0)"
       style="font-size:12.00794888px;font-style:normal;font-variant:normal;font-weight:normal;font-stretch:normal;line-height:125%;letter-spacing:0px;word-spacing:0px;fill:#000000;fill-opacity:1;stroke:none;font-family:Futura PT Book;-inkscape-font-specification:Futura PT Book"
       id="text5124">
      <path
         d="m 221.2327,195.64842 1.02066,0 -0.50433,-8.09325 -1.33286,0 -1.44094,3.91454 c -0.18037,0.50908 -0.34197,0.98889 -0.48481,1.43943 -0.14285,0.45055 -0.26543,0.87933 -0.36774,1.28634 l -0.036,0 c -0.10232,-0.41902 -0.2219,-0.8538 -0.35874,-1.30435 -0.13684,-0.45054 -0.28944,-0.92434 -0.45779,-1.42142 l -1.3809,-3.91454 -1.33286,0 -0.56437,8.09325 0.99665,0 0.21614,-3.47025 c 0.0365,-0.61665 0.0685,-1.23855 0.0961,-1.86571 0.0275,-0.62715 0.0475,-1.19802 0.06,-1.71261 l 0.024,0 c 0.11483,0.48007 0.25141,0.98189 0.40977,1.50547 0.15835,0.5236 0.33396,1.07045 0.52684,1.64057 l 1.30885,3.8545 0.79252,0 1.42892,-3.92655 c 0.20388,-0.55736 0.3905,-1.0907 0.55987,-1.60004 0.16935,-0.50932 0.32295,-1.00064 0.4608,-1.47395 l 0.036,0 c -0.004,0.51634 0.007,1.08371 0.033,1.7021 0.026,0.61841 0.055,1.2158 0.0871,1.79217 z"
         style="font-family:Myriad Pro;-inkscape-font-specification:Myriad Pro"
         id="path5994" />
      <path
         d="m 223.28601,197.79244 c 0.12862,0.086 0.30847,0.16375 0.53953,0.23318 0.23107,0.0694 0.49092,0.10618 0.77955,0.11025 0.60977,-0.0127 1.07028,-0.16489 1.38151,-0.4566 0.31123,-0.29172 0.46733,-0.64686 0.46831,-1.06541 -0.008,-0.35725 -0.1187,-0.64767 -0.33172,-0.87125 -0.21302,-0.22359 -0.47969,-0.36766 -0.80003,-0.43221 l 0,-0.0156 c 0.31221,-0.11609 0.54636,-0.27805 0.70247,-0.48587 0.1561,-0.20781 0.23415,-0.44391 0.23415,-0.70832 0.002,-0.32017 -0.11513,-0.59888 -0.35123,-0.83613 -0.23611,-0.23724 -0.60295,-0.36179 -1.10053,-0.37367 -0.27774,0.004 -0.534,0.0447 -0.76881,0.12196 -0.23481,0.0772 -0.42083,0.16667 -0.55807,0.2683 l 0.17952,0.49953 c 0.11252,-0.0823 0.25822,-0.15772 0.43709,-0.22635 0.17887,-0.0686 0.37139,-0.10504 0.57758,-0.10927 0.31367,0.007 0.541,0.0833 0.68198,0.23025 0.14098,0.147 0.21025,0.32522 0.20781,0.53466 -0.0159,0.29871 -0.14212,0.51693 -0.37855,0.65465 -0.23643,0.13774 -0.4875,0.20571 -0.7532,0.20391 l -0.38245,0 0,0.51515 0.38245,0 c 0.3444,-0.002 0.6449,0.0782 0.9015,0.24098 0.25659,0.16277 0.39318,0.42067 0.40977,0.77369 0.0107,0.22537 -0.0693,0.44197 -0.24001,0.64978 -0.17074,0.20781 -0.47319,0.31904 -0.90735,0.33367 -0.24294,-0.006 -0.46538,-0.0433 -0.66734,-0.11317 -0.20196,-0.0699 -0.35416,-0.13887 -0.4566,-0.20684 z"
         style="font-size:7.80527687px;baseline-shift:sub;font-family:Myriad Pro;-inkscape-font-specification:Myriad Pro"
         id="path5996" />
      <path
         d="m 236.20026,191.6018 0,-0.72047 -6.19602,0 0,0.72047 z m 0,2.35352 0,-0.72046 -6.19602,0 0,0.72046 z"
         style="font-family:Myriad Pro;-inkscape-font-specification:Myriad Pro"
         id="path5998" />
      <path
         d="m 239.59371,195.64842 5.90784,0 0,-0.87657 -4.52694,0 0,-0.036 4.4669,-6.54425 0,-0.63641 -5.46355,0 0,0.87657 4.10667,0 0,0.036 -4.49092,6.56826 z"
         style="font-family:Myriad Pro;-inkscape-font-specification:Myriad Pro"
         id="path6000" />
      <path
         d="m 249.15666,198.05001 c -0.0231,-0.12992 -0.0393,-0.27204 -0.0488,-0.42636 -0.009,-0.15431 -0.014,-0.31399 -0.0137,-0.47904 l 0,-1.41274 c 0.0123,-0.39562 -0.0826,-0.74783 -0.28489,-1.05662 -0.20229,-0.30879 -0.58604,-0.47172 -1.15126,-0.4888 -0.2405,0.001 -0.46783,0.0319 -0.68198,0.0917 -0.21416,0.0598 -0.4005,0.14115 -0.55905,0.24391 l 0.15611,0.4527 c 0.13512,-0.0868 0.2883,-0.15512 0.45953,-0.20488 0.17122,-0.0498 0.34586,-0.0751 0.52392,-0.0761 0.37383,0.0169 0.61352,0.12358 0.71905,0.32001 0.10553,0.19643 0.15204,0.38115 0.13952,0.55417 l 0,0.078 c -0.7332,-0.002 -1.2942,0.11708 -1.68299,0.35708 -0.3888,0.24002 -0.5849,0.5893 -0.58832,1.04785 3.3e-4,0.28424 0.0972,0.53335 0.29075,0.74735 0.1935,0.21399 0.48164,0.32651 0.86442,0.33757 0.27058,-0.005 0.50408,-0.0615 0.70051,-0.16976 0.19643,-0.1083 0.34798,-0.23904 0.45466,-0.39221 l 0.0234,0 0.0546,0.47611 z m -0.72588,-1.27224 c -1.7e-4,0.0354 -0.004,0.0719 -0.0107,0.10927 -0.007,0.0374 -0.0164,0.0738 -0.0283,0.10927 -0.0551,0.16635 -0.15952,0.31172 -0.31318,0.43612 -0.15367,0.12439 -0.35367,0.18976 -0.60002,0.1961 -0.18066,4.9e-4 -0.33254,-0.0532 -0.45563,-0.16098 -0.12309,-0.10781 -0.18716,-0.27269 -0.1922,-0.49465 0.0198,-0.35741 0.19285,-0.59287 0.51904,-0.70637 0.32619,-0.1135 0.68653,-0.16163 1.08102,-0.1444 z"
         style="font-size:7.80527687px;baseline-shift:sub"
         id="path6002" />
      <path
         d="m 253.2265,198.05001 0,-0.56978 -2.27911,0 0,-0.0156 0.40587,-0.37464 c 0.54067,-0.50571 0.96572,-0.97142 1.27517,-1.39713 0.30944,-0.42571 0.46717,-0.868 0.47319,-1.32688 0.004,-0.37904 -0.11871,-0.71563 -0.36685,-1.0098 -0.24814,-0.29415 -0.6436,-0.44928 -1.18638,-0.46538 -0.294,0.003 -0.56263,0.0517 -0.80589,0.14635 -0.24326,0.0946 -0.45335,0.21757 -0.63026,0.36879 l 0.21854,0.48392 c 0.11854,-0.10325 0.26977,-0.19919 0.45368,-0.28781 0.1839,-0.0886 0.39172,-0.13578 0.62343,-0.14147 0.37319,0.009 0.63564,0.10993 0.78735,0.30245 0.15171,0.19253 0.22489,0.42213 0.21952,0.68881 -0.001,0.36814 -0.15497,0.7519 -0.46148,1.15126 -0.30652,0.39937 -0.78231,0.9002 -1.42737,1.5025 l -0.53856,0.52294 0,0.42148 z"
         style="font-size:7.80527687px;baseline-shift:sub"
         id="path6004" />
      <path
         d="m 259.39592,189.26028 0,2.82183 -2.71376,0 0,0.72046 2.71376,0 0,2.84585 0.7685,0 0,-2.84585 2.71376,0 0,-0.72046 -2.71376,0 0,-2.82183 z"
         style="font-family:Myriad Pro;-inkscape-font-specification:Myriad Pro"
         id="path6006" />
      <path
         d="m 270.90665,189.83665 c -0.024,0.1406 -0.045,0.29169 -0.0631,0.45329 -0.018,0.16161 -0.033,0.35474 -0.045,0.57938 l -0.048,0 c -0.1586,-0.36898 -0.39075,-0.65467 -0.69645,-0.85706 -0.3057,-0.20237 -0.66994,-0.30494 -1.09271,-0.3077 -0.69645,0.013 -1.29684,0.30221 -1.80117,0.86757 -0.50432,0.56537 -0.7685,1.32886 -0.79251,2.29048 0.0128,0.89384 0.2364,1.60079 0.67094,2.12088 0.43453,0.52009 1.00339,0.78576 1.7066,0.79702 0.46305,-0.008 0.86081,-0.12458 1.19328,-0.35123 0.33246,-0.22665 0.59513,-0.51784 0.78801,-0.87357 l 0.036,0 c 0.0355,0.43979 0.14459,0.75499 0.32721,0.94562 0.18262,0.19062 0.40576,0.28368 0.66944,0.27918 0.063,2.5e-4 0.12908,-0.003 0.19813,-0.0105 0.069,-0.007 0.12307,-0.0198 0.1621,-0.0375 l 0.0841,-0.75649 c -0.20264,-0.004 -0.34974,-0.0836 -0.44129,-0.24016 -0.0916,-0.1566 -0.13659,-0.40476 -0.13509,-0.74448 0.003,-0.81253 0.0213,-1.62205 0.0555,-2.42858 0.0343,-0.80652 0.0678,-1.38189 0.10057,-1.72612 z m -3.47026,2.98994 c 0.008,-0.67343 0.16061,-1.22079 0.4593,-1.64207 0.29869,-0.42126 0.69795,-0.6384 1.19778,-0.65142 0.38925,0.0133 0.71546,0.16386 0.97863,0.4518 0.26317,0.28794 0.43328,0.63366 0.51034,1.03717 0.023,0.10107 0.037,0.20213 0.042,0.30319 0.005,0.10107 0.007,0.20814 0.006,0.32121 7.4e-4,0.15936 -0.004,0.30295 -0.0135,0.43078 -0.01,0.12784 -0.0293,0.25642 -0.0585,0.38575 -0.0976,0.39776 -0.28669,0.73999 -0.56737,1.02667 -0.28068,0.28669 -0.6079,0.43678 -0.98164,0.45029 -0.50683,-0.019 -0.89508,-0.23315 -1.16475,-0.64241 -0.26968,-0.40927 -0.40577,-0.89959 -0.40827,-1.47096 z"
         style="font-family:Myriad Pro;-inkscape-font-specification:Myriad Pro"
         id="path6008" />
      <path
         d="m 280.46231,195.64842 1.02066,0 -0.50432,-8.09325 -1.33287,0 -1.44094,3.91454 c -0.18037,0.50908 -0.34197,0.98889 -0.48481,1.43943 -0.14285,0.45055 -0.26543,0.87933 -0.36774,1.28634 l -0.036,0 c -0.10232,-0.41902 -0.2219,-0.8538 -0.35874,-1.30435 -0.13684,-0.45054 -0.28944,-0.92434 -0.45779,-1.42142 l -1.3809,-3.91454 -1.33286,0 -0.56437,8.09325 0.99665,0 0.21614,-3.47025 c 0.0365,-0.61665 0.0685,-1.23855 0.0961,-1.86571 0.0275,-0.62715 0.0475,-1.19802 0.06,-1.71261 l 0.024,0 c 0.11483,0.48007 0.25141,0.98189 0.40977,1.50547 0.15835,0.5236 0.33396,1.07045 0.52684,1.64057 l 1.30885,3.8545 0.79252,0 1.42892,-3.92655 c 0.20388,-0.55736 0.3905,-1.0907 0.55987,-1.60004 0.16935,-0.50932 0.32295,-1.00064 0.4608,-1.47395 l 0.036,0 c -0.004,0.51634 0.007,1.08371 0.033,1.7021 0.026,0.61841 0.055,1.2158 0.0871,1.79217 z"
         style="font-family:Myriad Pro;-inkscape-font-specification:Myriad Pro"
         id="path6010" />
      <path
         d="m 285.77819,198.05001 0,-0.56978 -2.27912,0 0,-0.0156 0.40587,-0.37464 c 0.54067,-0.50571 0.96573,-0.97142 1.27517,-1.39713 0.30944,-0.42571 0.46717,-0.868 0.47319,-1.32688 0.004,-0.37904 -0.1187,-0.71563 -0.36684,-1.0098 -0.24814,-0.29415 -0.6436,-0.44928 -1.18639,-0.46538 -0.29399,0.003 -0.56262,0.0517 -0.80588,0.14635 -0.24326,0.0946 -0.45335,0.21757 -0.63027,0.36879 l 0.21855,0.48392 c 0.11854,-0.10325 0.26976,-0.19919 0.45367,-0.28781 0.18391,-0.0886 0.39172,-0.13578 0.62344,-0.14147 0.37318,0.009 0.63563,0.10993 0.78735,0.30245 0.15171,0.19253 0.22488,0.42213 0.21952,0.68881 -0.001,0.36814 -0.15497,0.7519 -0.46148,1.15126 -0.30652,0.39937 -0.78231,0.9002 -1.42737,1.5025 l -0.53856,0.52294 0,0.42148 z"
         style="font-size:7.80527687px;baseline-shift:sub"
         id="path6012" />
    </g>
    <rect
       style="color:#000000;fill:none;stroke:#000000;stroke-width:1;stroke-linecap:square;stroke-linejoin:bevel;stroke-miterlimit:4;stroke-opacity:1;stroke-dasharray:none;stroke-dashoffset:0;marker:none;visibility:visible;display:inline;overflow:visible;enable-background:accumulate"
       id="rect5219"
       width="237.58788"
       height="39.59798"
       x="73.140221"
       y="298.54633" />
    <g
       style="font-size:12px;font-style:normal;font-variant:normal;font-weight:normal;font-stretch:normal;text-align:center;line-height:125%;letter-spacing:3.62999868px;word-spacing:0px;text-anchor:middle;fill:#000000;fill-opacity:1;stroke:none;font-family:Futura PT Book;-inkscape-font-specification:Futura PT Book"
       id="text5228">
      <path
         d="m 182.52196,319.85729 c 0.44849,-0.009 0.79948,-0.153 1.05298,-0.432 0.2535,-0.27899 0.3825,-0.63899 0.387,-1.07998 -0.006,-0.45149 -0.1375,-0.81449 -0.393,-1.08899 -0.2555,-0.27449 -0.59649,-0.41549 -1.02298,-0.42299 -0.4275,0.007 -0.77249,0.1485 -1.03499,0.42299 -0.2625,0.2745 -0.39749,0.6375 -0.40499,1.08899 0.007,0.44099 0.13749,0.80099 0.39299,1.07998 0.2555,0.279 0.59649,0.423 1.02299,0.432 z"
         style="font-size:24px;font-family:Myriad Pro;-inkscape-font-specification:Myriad Pro"
         id="path5987" />
      <path
         d="m 191.12071,319.85729 c 0.44849,-0.009 0.79948,-0.153 1.05298,-0.432 0.2535,-0.27899 0.38249,-0.63899 0.387,-1.07998 -0.006,-0.45149 -0.1375,-0.81449 -0.393,-1.08899 -0.2555,-0.27449 -0.59649,-0.41549 -1.02298,-0.42299 -0.4275,0.007 -0.77249,0.1485 -1.03499,0.42299 -0.2625,0.2745 -0.3975,0.6375 -0.40499,1.08899 0.006,0.44099 0.13749,0.80099 0.39299,1.07998 0.2555,0.279 0.59649,0.423 1.02299,0.432 z"
         style="font-size:24px;font-family:Myriad Pro;-inkscape-font-specification:Myriad Pro"
         id="path5989" />
      <path
         d="m 199.71946,319.85729 c 0.44849,-0.009 0.79948,-0.153 1.05298,-0.432 0.2535,-0.27899 0.38249,-0.63899 0.387,-1.07998 -0.007,-0.45149 -0.1375,-0.81449 -0.393,-1.08899 -0.2555,-0.27449 -0.59649,-0.41549 -1.02298,-0.42299 -0.4275,0.007 -0.7725,0.1485 -1.03499,0.42299 -0.2625,0.2745 -0.3975,0.6375 -0.405,1.08899 0.006,0.44099 0.1375,0.80099 0.393,1.07998 0.25549,0.279 0.59649,0.423 1.02299,0.432 z"
         style="font-size:24px;font-family:Myriad Pro;-inkscape-font-specification:Myriad Pro"
         id="path5991" />
    </g>
    <path
       inkscape:connector-curvature="0"
       id="path5232"
       d="m 106.14384,339.14434 0,74.27505"
       style="fill:none;stroke:#000000;stroke-width:1;stroke-linecap:square;stroke-linejoin:miter;stroke-miterlimit:4;stroke-opacity:1;stroke-dasharray:none" />
    <path
       style="fill:none;stroke:#000000;stroke-width:1;stroke-linecap:square;stroke-linejoin:miter;stroke-miterlimit:4;stroke-opacity:1;stroke-dasharray:none"
       d="m 276.12091,339.14434 0,74.27505"
       id="path5234"
       inkscape:connector-curvature="0" />
    <rect
       y="400.54633"
       x="73.140221"
       height="39.59798"
       width="237.58788"
       id="rect5236"
       style="color:#000000;fill:#000000;fill-opacity:1;stroke:#000000;stroke-width:0.80000001;stroke-linecap:square;stroke-linejoin:bevel;stroke-miterlimit:4;stroke-opacity:1;stroke-dasharray:none;stroke-dashoffset:0;marker:none;visibility:visible;display:inline;overflow:visible;enable-background:accumulate" />
    <g
       transform="matrix(1.4611491,0,0,1.4604931,-31.62165,-16.940793)"
       id="g5238">
      <path
         style="fill:none;stroke:#000000;stroke-width:0.68454653px;stroke-linecap:round;stroke-linejoin:bevel;stroke-opacity:1"
         d="m 96.786,250.56938 111.331,29.83105"
         id="path5240"
         inkscape:connector-curvature="0"
         sodipodi:nodetypes="cc" />
      <path
         sodipodi:nodetypes="ccccc"
         inkscape:connector-curvature="0"
         id="path5242"
         d="m 197.18377,281.05334 10.93323,-0.65291 -4.5696,-3.02111 -4.56971,-3.02111 z"
         style="fill:#000000;fill-opacity:1;stroke:#000000;stroke-width:0.68454653;stroke-linejoin:round;stroke-miterlimit:4;stroke-opacity:1;stroke-dasharray:none" />
    </g>
    <g
       transform="matrix(0.96614272,0.25876095,-0.25887717,0.96570898,0,0)"
       style="font-size:12.00794888px;font-style:normal;font-variant:normal;font-weight:normal;font-stretch:normal;line-height:125%;letter-spacing:0px;word-spacing:0px;fill:#000000;fill-opacity:1;stroke:none;font-family:Futura PT Book;-inkscape-font-specification:Futura PT Book"
       id="text5244">
      <path
         d="m 236.90758,303.25421 1.02066,0 -0.50432,-8.09325 -1.33287,0 -1.44093,3.91454 c -0.18038,0.50908 -0.34198,0.98889 -0.48482,1.43943 -0.14285,0.45055 -0.26543,0.87933 -0.36774,1.28634 l -0.036,0 c -0.10232,-0.41902 -0.2219,-0.8538 -0.35873,-1.30435 -0.13685,-0.45054 -0.28945,-0.92434 -0.4578,-1.42142 l -1.3809,-3.91454 -1.33286,0 -0.56437,8.09325 0.99665,0 0.21614,-3.47025 c 0.0365,-0.61665 0.0685,-1.23855 0.0961,-1.86571 0.0275,-0.62715 0.0475,-1.19802 0.06,-1.71261 l 0.024,0 c 0.11483,0.48006 0.25142,0.98189 0.40977,1.50547 0.15835,0.5236 0.33396,1.07045 0.52684,1.64057 l 1.30885,3.8545 0.79252,0 1.42892,-3.92655 c 0.20388,-0.55736 0.3905,-1.0907 0.55987,-1.60004 0.16935,-0.50932 0.32295,-1.00064 0.4608,-1.47395 l 0.036,0 c -0.004,0.51634 0.007,1.08371 0.033,1.7021 0.026,0.61841 0.055,1.21579 0.0871,1.79216 z"
         style="font-family:Myriad Pro;-inkscape-font-specification:Myriad Pro"
         id="path5954" />
      <path
         d="m 242.22346,305.6558 0,-0.56978 -2.27912,0 0,-0.0156 0.40587,-0.37465 c 0.54067,-0.5057 0.96573,-0.97141 1.27517,-1.39712 0.30944,-0.42571 0.46717,-0.868 0.47319,-1.32688 0.004,-0.37904 -0.1187,-0.71563 -0.36684,-1.0098 -0.24814,-0.29415 -0.6436,-0.44928 -1.18639,-0.46538 -0.29399,0.003 -0.56262,0.0517 -0.80588,0.14635 -0.24326,0.0946 -0.45335,0.21757 -0.63027,0.36879 l 0.21855,0.48392 c 0.11854,-0.10325 0.26976,-0.19919 0.45367,-0.28781 0.18391,-0.0886 0.39172,-0.13578 0.62344,-0.14147 0.37318,0.009 0.63563,0.10993 0.78735,0.30245 0.15171,0.19253 0.22488,0.42213 0.21952,0.6888 -0.001,0.36815 -0.15497,0.75191 -0.46148,1.15127 -0.30652,0.39937 -0.78231,0.9002 -1.42738,1.50249 l -0.53855,0.52295 0,0.42148 z"
         style="font-size:7.80527687px;baseline-shift:sub;font-family:Myriad Pro;-inkscape-font-specification:Myriad Pro"
         id="path5956" />
      <path
         d="m 243.87564,305.6558 0,-2.24789 c 1.6e-4,-0.4314 -0.004,-0.81938 -0.0127,-1.16395 -0.009,-0.34456 -0.0226,-0.67986 -0.0419,-1.00589 l 0.0234,-0.008 c 0.13415,0.28587 0.28538,0.57661 0.45368,0.87222 0.1683,0.29563 0.34489,0.59027 0.52977,0.88394 l 1.67031,2.66937 0.68686,0 0,-5.26069 -0.64003,0 0,2.20106 c -6.5e-4,0.40474 0.005,0.77971 0.0156,1.12492 0.0111,0.34522 0.0319,0.69093 0.0625,1.03712 l -0.0156,0.008 c -0.12424,-0.2683 -0.26408,-0.54343 -0.41953,-0.8254 -0.15546,-0.28196 -0.33043,-0.5766 -0.5249,-0.88393 l -1.68592,-2.66157 -0.74149,0 0,5.26069 z"
         style="font-size:7.80527687px;baseline-shift:sub;font-family:Myriad Pro;-inkscape-font-specification:Myriad Pro"
         id="path5958" />
      <path
         d="m 249.85606,301.50345 0,1.83421 -1.76397,0 0,0.46831 1.76397,0 0,1.84983 0.49953,0 0,-1.84983 1.76397,0 0,-0.46831 -1.76397,0 0,-1.83421 z"
         style="font-size:7.80527687px;baseline-shift:sub;font-family:Myriad Pro;-inkscape-font-specification:Myriad Pro"
         id="path5960" />
      <path
         d="m 254.27153,305.6558 0.66344,0 0,-5.07336 -0.58538,0 -1.10834,0.59319 0.13269,0.52295 0.88198,-0.47612 0.0156,0 z"
         style="font-size:7.80527687px;baseline-shift:sub;font-family:Myriad Pro;-inkscape-font-specification:Myriad Pro"
         id="path5962" />
      <path
         d="m 265.67158,299.20758 0,-0.72046 -6.19603,0 0,0.72046 z m 0,2.35353 0,-0.72047 -6.19603,0 0,0.72047 z"
         style="font-family:Myriad Pro;-inkscape-font-specification:Myriad Pro"
         id="path5964" />
      <path
         d="m 269.06503,303.25421 5.90783,0 0,-0.87657 -4.52693,0 0,-0.036 4.4669,-6.54425 0,-0.63641 -5.46355,0 0,0.87657 4.10666,0 0,0.036 -4.49091,6.56826 z"
         style="font-family:Myriad Pro;-inkscape-font-specification:Myriad Pro"
         id="path5966" />
      <path
         d="m 278.62798,305.6558 c -0.0231,-0.12992 -0.0393,-0.27204 -0.0488,-0.42636 -0.009,-0.15431 -0.014,-0.31399 -0.0137,-0.47904 l 0,-1.41274 c 0.0124,-0.39562 -0.0826,-0.74783 -0.28489,-1.05662 -0.20229,-0.30879 -0.58604,-0.47172 -1.15126,-0.4888 -0.2405,0.001 -0.46783,0.0319 -0.68198,0.0917 -0.21415,0.0598 -0.4005,0.14115 -0.55904,0.24391 l 0.1561,0.4527 c 0.13512,-0.0868 0.2883,-0.15512 0.45953,-0.20488 0.17122,-0.0498 0.34586,-0.0751 0.52392,-0.0761 0.37383,0.0169 0.61352,0.12358 0.71905,0.32001 0.10553,0.19643 0.15204,0.38115 0.13952,0.55417 l 0,0.078 c -0.7332,-0.002 -1.2942,0.11708 -1.68299,0.35708 -0.3888,0.24001 -0.5849,0.5893 -0.58832,1.04785 3.3e-4,0.28424 0.0972,0.53335 0.29075,0.74734 0.1935,0.214 0.48164,0.32652 0.86442,0.33758 0.27058,-0.005 0.50408,-0.0615 0.70051,-0.16976 0.19643,-0.1083 0.34798,-0.23904 0.45466,-0.39221 l 0.0234,0 0.0546,0.47611 z m -0.72588,-1.27224 c -1.6e-4,0.0355 -0.004,0.0719 -0.0107,0.10927 -0.007,0.0374 -0.0164,0.0738 -0.0283,0.10927 -0.0551,0.16635 -0.15952,0.31172 -0.31318,0.43612 -0.15366,0.12439 -0.35367,0.18976 -0.60002,0.1961 -0.18066,4.9e-4 -0.33254,-0.0532 -0.45563,-0.16098 -0.12309,-0.10781 -0.18716,-0.27269 -0.1922,-0.49465 0.0198,-0.35741 0.19285,-0.59287 0.51904,-0.70637 0.32619,-0.1135 0.68653,-0.16163 1.08102,-0.1444 z"
         style="font-size:7.80527687px;baseline-shift:sub"
         id="path5968" />
      <path
         d="m 280.34066,305.6558 0,-2.24789 c 1.6e-4,-0.4314 -0.004,-0.81938 -0.0127,-1.16395 -0.009,-0.34456 -0.0226,-0.67986 -0.0419,-1.00589 l 0.0234,-0.008 c 0.13415,0.28587 0.28538,0.57661 0.45368,0.87222 0.1683,0.29563 0.34489,0.59027 0.52978,0.88394 l 1.6703,2.66937 0.68686,0 0,-5.26069 -0.64002,0 0,2.20106 c -6.6e-4,0.40474 0.005,0.77971 0.0156,1.12492 0.0111,0.34522 0.0319,0.69093 0.0624,1.03712 l -0.0156,0.008 c -0.12424,-0.2683 -0.26408,-0.54343 -0.41953,-0.8254 -0.15546,-0.28196 -0.33042,-0.5766 -0.5249,-0.88393 l -1.68592,-2.66157 -0.74149,0 0,5.26069 z"
         style="font-size:7.80527687px;baseline-shift:sub"
         id="path5970" />
      <path
         d="m 284.47905,303.29083 0,0.50734 1.92788,0 0,-0.50734 z"
         style="font-size:7.80527687px;baseline-shift:sub"
         id="path5972" />
      <path
         d="m 288.48033,305.6558 0.66344,0 0,-5.07336 -0.58539,0 -1.10833,0.59319 0.13269,0.52295 0.88198,-0.47612 0.0156,0 z"
         style="font-size:7.80527687px;baseline-shift:sub"
         id="path5974" />
      <path
         d="m 296.39811,296.86606 0,2.82184 -2.71376,0 0,0.72046 2.71376,0 0,2.84585 0.7685,0 0,-2.84585 2.71376,0 0,-0.72046 -2.71376,0 0,-2.82184 z"
         style="font-family:Myriad Pro;-inkscape-font-specification:Myriad Pro"
         id="path5976" />
      <path
         d="m 307.90884,297.44244 c -0.024,0.1406 -0.045,0.29169 -0.063,0.45329 -0.018,0.16161 -0.033,0.35474 -0.045,0.57938 l -0.048,0 c -0.15861,-0.36899 -0.39076,-0.65467 -0.69645,-0.85706 -0.30571,-0.20237 -0.66994,-0.30494 -1.09271,-0.3077 -0.69646,0.013 -1.29685,0.3022 -1.80117,0.86757 -0.50433,0.56537 -0.7685,1.32886 -0.79252,2.29048 0.0128,0.89384 0.23641,1.60079 0.67094,2.12088 0.43453,0.52009 1.0034,0.78576 1.70661,0.79702 0.46304,-0.008 0.8608,-0.12458 1.19327,-0.35123 0.33246,-0.22665 0.59513,-0.51784 0.78801,-0.87357 l 0.036,0 c 0.0355,0.43979 0.14458,0.75499 0.32721,0.94562 0.18261,0.19062 0.40576,0.28368 0.66943,0.27918 0.063,2.5e-4 0.12908,-0.003 0.19813,-0.0105 0.069,-0.007 0.12308,-0.0198 0.16211,-0.0375 l 0.084,-0.7565 c -0.20264,-0.004 -0.34973,-0.0836 -0.44129,-0.24015 -0.0916,-0.1566 -0.13659,-0.40476 -0.13508,-0.74448 0.003,-0.81253 0.0213,-1.62205 0.0555,-2.42858 0.0343,-0.80652 0.0678,-1.38189 0.10057,-1.72612 z m -3.47025,2.98994 c 0.008,-0.67343 0.1606,-1.22079 0.4593,-1.64207 0.29869,-0.42126 0.69795,-0.63841 1.19777,-0.65142 0.38925,0.0133 0.71546,0.16386 0.97864,0.45179 0.26316,0.28795 0.43327,0.63367 0.51033,1.03718 0.023,0.10107 0.037,0.20213 0.042,0.30319 0.005,0.10107 0.007,0.20814 0.006,0.32121 7.5e-4,0.15936 -0.004,0.30295 -0.0135,0.43078 -0.01,0.12784 -0.0293,0.25642 -0.0585,0.38575 -0.0976,0.39776 -0.28669,0.73998 -0.56737,1.02667 -0.28068,0.28669 -0.60789,0.43678 -0.98163,0.45029 -0.50683,-0.019 -0.89509,-0.23315 -1.16476,-0.64242 -0.26967,-0.40926 -0.40576,-0.89958 -0.40826,-1.47095 z"
         style="font-family:Myriad Pro;-inkscape-font-specification:Myriad Pro"
         id="path5978" />
      <path
         d="m 317.4645,303.25421 1.02066,0 -0.50433,-8.09325 -1.33286,0 -1.44094,3.91454 c -0.18037,0.50908 -0.34198,0.98889 -0.48481,1.43943 -0.14285,0.45055 -0.26543,0.87933 -0.36774,1.28634 l -0.036,0 c -0.10232,-0.41902 -0.22189,-0.8538 -0.35873,-1.30435 -0.13684,-0.45054 -0.28944,-0.92434 -0.4578,-1.42142 l -1.38089,-3.91454 -1.33287,0 -0.56436,8.09325 0.99664,0 0.21614,-3.47025 c 0.0365,-0.61665 0.0686,-1.23855 0.0961,-1.86571 0.0275,-0.62715 0.0475,-1.19802 0.06,-1.71261 l 0.024,0 c 0.11482,0.48006 0.25141,0.98189 0.40977,1.50547 0.15835,0.5236 0.33396,1.07045 0.52684,1.64057 l 1.30885,3.8545 0.79251,0 1.42893,-3.92655 c 0.20387,-0.55736 0.3905,-1.0907 0.55986,-1.60004 0.16936,-0.50932 0.32295,-1.00064 0.4608,-1.47395 l 0.036,0 c -0.004,0.51634 0.007,1.08371 0.033,1.7021 0.026,0.61841 0.055,1.21579 0.087,1.79216 z"
         style="font-family:Myriad Pro;-inkscape-font-specification:Myriad Pro"
         id="path5980" />
      <path
         d="m 322.78038,305.6558 0,-0.56978 -2.27912,0 0,-0.0156 0.40587,-0.37465 c 0.54067,-0.5057 0.96573,-0.97141 1.27517,-1.39712 0.30944,-0.42571 0.46717,-0.868 0.47319,-1.32688 0.004,-0.37904 -0.1187,-0.71563 -0.36684,-1.0098 -0.24814,-0.29415 -0.6436,-0.44928 -1.18639,-0.46538 -0.29399,0.003 -0.56262,0.0517 -0.80588,0.14635 -0.24326,0.0946 -0.45335,0.21757 -0.63027,0.36879 l 0.21855,0.48392 c 0.11854,-0.10325 0.26976,-0.19919 0.45367,-0.28781 0.18391,-0.0886 0.39172,-0.13578 0.62344,-0.14147 0.37318,0.009 0.63563,0.10993 0.78735,0.30245 0.15171,0.19253 0.22488,0.42213 0.21952,0.6888 -0.001,0.36815 -0.15497,0.75191 -0.46148,1.15127 -0.30652,0.39937 -0.78231,0.9002 -1.42738,1.50249 l -0.53855,0.52295 0,0.42148 z"
         style="font-size:7.80527687px;baseline-shift:sub"
         id="path5982" />
      <path
         d="m 324.43256,305.6558 0,-2.24789 c 1.6e-4,-0.4314 -0.004,-0.81938 -0.0127,-1.16395 -0.009,-0.34456 -0.0226,-0.67986 -0.042,-1.00589 l 0.0234,-0.008 c 0.13415,0.28587 0.28537,0.57661 0.45367,0.87222 0.1683,0.29563 0.34489,0.59027 0.52978,0.88394 l 1.67031,2.66937 0.68685,0 0,-5.26069 -0.64002,0 0,2.20106 c -6.6e-4,0.40474 0.005,0.77971 0.0156,1.12492 0.011,0.34522 0.0319,0.69093 0.0624,1.03712 l -0.0156,0.008 c -0.12424,-0.2683 -0.26408,-0.54343 -0.41953,-0.8254 -0.15545,-0.28196 -0.33042,-0.5766 -0.5249,-0.88393 l -1.68591,-2.66157 -0.7415,0 0,5.26069 z"
         style="font-size:7.80527687px;baseline-shift:sub"
         id="path5984" />
    </g>
  </g>
</svg>
