<?xml version="1.0" encoding="UTF-8" standalone="no"?>
<!-- Created with matplotlib (http://matplotlib.org/) -->

<svg
   xmlns:dc="http://purl.org/dc/elements/1.1/"
   xmlns:cc="http://creativecommons.org/ns#"
   xmlns:rdf="http://www.w3.org/1999/02/22-rdf-syntax-ns#"
   xmlns:svg="http://www.w3.org/2000/svg"
   xmlns="http://www.w3.org/2000/svg"
   xmlns:xlink="http://www.w3.org/1999/xlink"
   xmlns:sodipodi="http://sodipodi.sourceforge.net/DTD/sodipodi-0.dtd"
   xmlns:inkscape="http://www.inkscape.org/namespaces/inkscape"
   height="275.96191"
   version="1.1"
   viewBox="0 0 286.33743 220.76953"
   width="357.92178"
   id="svg7677"
   inkscape:version="0.48.5 r10040"
   sodipodi:docname="ramp.svg">
  <metadata
     id="metadata8037">
    <rdf:RDF>
      <cc:Work
         rdf:about="">
        <dc:format>image/svg+xml</dc:format>
        <dc:type
           rdf:resource="http://purl.org/dc/dcmitype/StillImage" />
        <dc:title></dc:title>
      </cc:Work>
    </rdf:RDF>
  </metadata>
  <sodipodi:namedview
     pagecolor="#ffffff"
     bordercolor="#666666"
     borderopacity="1"
     objecttolerance="10"
     gridtolerance="10"
     guidetolerance="10"
     inkscape:pageopacity="0"
     inkscape:pageshadow="2"
     inkscape:window-width="1920"
     inkscape:window-height="1028"
     id="namedview8035"
     showgrid="false"
     showguides="false"
     inkscape:guide-bbox="true"
     inkscape:zoom="1.4142136"
     inkscape:cx="247.65189"
     inkscape:cy="39.850738"
     inkscape:window-x="-8"
     inkscape:window-y="-8"
     inkscape:window-maximized="1"
     inkscape:current-layer="layer2"
     fit-margin-top="0"
     fit-margin-left="0"
     fit-margin-right="0"
     fit-margin-bottom="0">
    <sodipodi:guide
       orientation="0,1"
       position="37.658002,31.021451"
       id="guide9211" />
    <sodipodi:guide
       orientation="1,0"
       position="37.550094,31.246241"
       id="guide9213" />
    <sodipodi:guide
       orientation="0,1"
       position="260.96806,207.11343"
       id="guide9215" />
    <sodipodi:guide
       orientation="1,0"
       position="260.70635,207.0314"
       id="guide9217" />
    <sodipodi:guide
       orientation="1,0"
       position="32.550469,27.899511"
       id="guide10491" />
    <sodipodi:guide
       orientation="1,0"
       position="18.659469,3.3087413"
       id="guide10523" />
    <sodipodi:guide
       orientation="1,0"
       position="8.6594691,-23.896057"
       id="guide10525" />
    <sodipodi:guide
       orientation="0,1"
       position="59.034469,26.021741"
       id="guide10527" />
    <sodipodi:guide
       orientation="0,1"
       position="127.80681,18.220991"
       id="guide10543" />
    <sodipodi:guide
       orientation="0,1"
       position="105.05786,8.2207413"
       id="guide10545" />
  </sodipodi:namedview>
  <defs
     id="defs7679"
     style="stroke-linecap:butt;stroke-linejoin:round">
    <linearGradient
       id="linearGradient13694">
      <stop
         style="stop-color:#0059cd;stop-opacity:1;"
         offset="0"
         id="stop13696" />
      <stop
         style="stop-color:#006fcd;stop-opacity:1;"
         offset="1"
         id="stop13698" />
    </linearGradient>
    <linearGradient
       id="linearGradient12787">
      <stop
         style="stop-color:#000000;stop-opacity:0.13513513;"
         offset="0"
         id="stop12789" />
      <stop
         style="stop-color:#000000;stop-opacity:0.05405406;"
         offset="1"
         id="stop12791" />
    </linearGradient>
    <style
       type="text/css"
       id="style7681">
*{stroke-linecap:butt;stroke-linejoin:round;}
  </style>
    <linearGradient
       inkscape:collect="always"
       xlink:href="#linearGradient12787"
       id="linearGradient12793"
       x1="313.27664"
       y1="29.459417"
       x2="55.133274"
       y2="224.52492"
       gradientUnits="userSpaceOnUse" />
    <radialGradient
       inkscape:collect="always"
       xlink:href="#linearGradient12787"
       id="radialGradient12797"
       cx="325.49072"
       cy="-13.142456"
       fx="325.49072"
       fy="-13.142456"
       r="135.26939"
       gradientTransform="matrix(-2.0040456,-0.02021555,0.01555847,-1.5423715,977.99343,1.184505)"
       gradientUnits="userSpaceOnUse" />
    <linearGradient
       inkscape:collect="always"
       xlink:href="#linearGradient13694"
       id="linearGradient13700"
       x1="315.71149"
       y1="34.200115"
       x2="69.466171"
       y2="223.05112"
       gradientUnits="userSpaceOnUse" />
  </defs>
  <defs
     id="defs8030">
    <clipPath
       id="p2fcb80d8b3">
      <rect
         height="213.48"
         width="270.5386"
         x="55.31625"
         y="12.96"
         id="rect8033"
         style="stroke-linecap:butt;stroke-linejoin:round" />
    </clipPath>
  </defs>
  <g
     inkscape:groupmode="layer"
     id="layer1"
     inkscape:label="Background"
     style="stroke-linecap:butt;stroke-linejoin:round;display:inline"
     transform="translate(-25.272425,42.122549)" />
  <g
     inkscape:groupmode="layer"
     id="layer3"
     inkscape:label="Plot"
     style="stroke-linecap:butt;stroke-linejoin:round;display:inline"
     transform="translate(-25.272425,42.122549)" />
  <g
     inkscape:groupmode="layer"
     id="layer2"
     inkscape:label="Axes"
     style="stroke-linecap:butt;stroke-linejoin:round;display:inline"
     transform="translate(-25.272425,42.122549)">
    <g
       id="patch_2"
       style="stroke:none;display:inline;fill-opacity:1;fill:url(#linearGradient12793)"
       transform="matrix(0.87765395,0,0,0.87765395,16.682164,-53.091102)">
      <path
         d="m 55.3162,226.44 270.5388,0 0,-213.48 -270.5388,0 z"
         style="fill:url(#radialGradient12797);stroke:none;fill-opacity:1"
         id="path7689"
         inkscape:connector-curvature="0" />
    </g>
    <path
       inkscape:connector-curvature="0"
       id="path7692"
       style="fill:none;stroke:url(#linearGradient13700);stroke-width:1.82304201000000000;stroke-linecap:round;stroke-linejoin:round;stroke-miterlimit:4;stroke-opacity:1;stroke-dasharray:none;display:inline"
       d="m 55.3162,226.44 2.7054,-0.191 2.7054,-0.574 2.7054,-0.954 2.7054,-1.33 2.7054,-1.7 2.7054,-2.065 2.7054,-2.421 2.7053,-2.768 2.7054,-3.103 2.7054,-3.426 2.7054,-3.737 2.7054,-4.031 2.7054,-4.31 2.7054,-4.573 2.7053,-4.817 2.7054,-5.042 2.7056,-5.247 2.705,-5.431 2.706,-5.595 2.705,-5.735 2.705,-5.854 2.706,-5.95 2.705,-6.02 2.706,-6.069 2.705,-6.093 2.705,-6.093 2.706,-6.069 2.705,-6.021 2.705,-5.949 2.706,-5.8542 2.705,-5.7356 2.706,-5.5946 2.705,-5.4316 2.705,-5.247 2.706,-5.0419 2.705,-4.8168 2.706,-4.5726 2.705,-4.3105 2.705,-4.0314 2.706,-3.7362 2.705,-3.4265 2.705,-3.1031 2.706,-2.7675 2.705,-2.421 2.706,-2.0649 2.705,-1.7008 2.705,-1.3297 2.706,-0.9537 2.705,-0.5736 2.706,-0.1915 2.705,0 2.705,0 2.706,0 2.705,0 2.705,0 2.706,0 2.705,0 2.706,0 2.705,0 2.705,0 2.706,0 2.705,0 2.706,0 2.705,0 2.705,0 2.706,0 2.705,0 2.705,0 2.706,0 2.705,0 2.706,0 2.705,0 2.705,0 2.706,0 2.705,0 2.706,0 2.705,0 2.705,0 2.706,0 2.705,0 2.706,0 2.705,0 2.705,0 2.706,0 2.705,0 2.705,0 2.706,0 2.705,0 2.706,0 2.705,0 2.705,0 2.706,0 2.705,0 2.706,0 2.705,0 2.705,0 2.706,0 2.705,0 2.705,0"
       clip-path="url(#p2fcb80d8b3)"
       transform="matrix(0.87765395,0,0,0.87765395,16.682164,-53.091102)" />
    <path
       inkscape:connector-curvature="0"
       style="stroke:#999999;stroke-width:0.80000000999999998;stroke-linecap:round;stroke-linejoin:round;stroke-miterlimit:4;stroke-dasharray:none;stroke-opacity:1"
       id="use7724"
       d="m 112.71854,145.64486 0,-3.51062" />
    <path
       inkscape:connector-curvature="0"
       style="stroke:#999999;stroke-width:0.80000000999999998;stroke-linecap:round;stroke-linejoin:round;stroke-miterlimit:4;stroke-dasharray:none;stroke-opacity:1"
       id="use7729"
       d="m 112.71854,-41.716707 0,3.510616" />
    <path
       inkscape:connector-curvature="0"
       style="stroke:#999999;stroke-width:0.80000000999999998;stroke-linecap:round;stroke-linejoin:round;stroke-miterlimit:4;stroke-dasharray:none;stroke-opacity:1"
       id="use7745"
       d="m 160.2064,145.64486 0,-3.51062" />
    <path
       inkscape:connector-curvature="0"
       style="stroke:#999999;stroke-width:0.80000000999999998;stroke-linecap:round;stroke-linejoin:round;stroke-miterlimit:4;stroke-dasharray:none;stroke-opacity:1"
       id="use7750"
       d="m 160.2064,-41.716707 0,3.510616" />
    <path
       inkscape:connector-curvature="0"
       style="stroke:#999999;stroke-width:0.80000000999999998;stroke-linecap:round;stroke-linejoin:round;stroke-miterlimit:4;stroke-dasharray:none;stroke-opacity:1"
       id="use7766"
       d="m 207.69424,145.64486 0,-3.51062" />
    <path
       inkscape:connector-curvature="0"
       style="stroke:#999999;stroke-width:0.80000000999999998;stroke-linecap:round;stroke-linejoin:round;stroke-miterlimit:4;stroke-dasharray:none;stroke-opacity:1"
       id="use7771"
       d="m 207.69424,-41.716707 0,3.510616" />
    <path
       inkscape:connector-curvature="0"
       style="stroke:#999999;stroke-width:0.80000000999999998;stroke-linecap:round;stroke-linejoin:round;stroke-miterlimit:4;stroke-dasharray:none;stroke-opacity:1"
       id="use7787"
       d="m 255.18211,145.64486 0,-3.51062" />
    <path
       inkscape:connector-curvature="0"
       style="stroke:#999999;stroke-width:0.80000000999999998;stroke-linecap:round;stroke-linejoin:round;stroke-miterlimit:4;stroke-dasharray:none;stroke-opacity:1"
       id="use7792"
       d="m 255.18211,-41.716707 0,3.510616" />
    <path
       inkscape:connector-curvature="0"
       style="stroke:#999999;stroke-width:0.80000000999999998;stroke-linecap:round;stroke-linejoin:round;stroke-miterlimit:4;stroke-dasharray:none;stroke-opacity:1"
       id="use7905"
       d="m 65.230689,111.57912 3.510616,0" />
    <path
       inkscape:connector-curvature="0"
       style="stroke:#999999;stroke-width:0.80000000999999998;stroke-linecap:round;stroke-linejoin:round;stroke-miterlimit:4;stroke-dasharray:none;stroke-opacity:1"
       id="use7910"
       d="m 302.66997,111.57912 -3.51062,0" />
    <path
       inkscape:connector-curvature="0"
       style="stroke:#999999;stroke-width:0.80000000999999998;stroke-linecap:round;stroke-linejoin:round;stroke-miterlimit:4;stroke-dasharray:none;stroke-opacity:1"
       id="use7925"
       d="m 65.230689,77.513381 3.510616,0" />
    <path
       inkscape:connector-curvature="0"
       style="stroke:#999999;stroke-width:0.80000000999999998;stroke-linecap:round;stroke-linejoin:round;stroke-miterlimit:4;stroke-dasharray:none;stroke-opacity:1"
       id="use7930"
       d="m 302.66997,77.513381 -3.51062,0" />
    <path
       inkscape:connector-curvature="0"
       style="stroke:#999999;stroke-width:0.80000000999999998;stroke-linecap:round;stroke-linejoin:round;stroke-miterlimit:4;stroke-dasharray:none;stroke-opacity:1"
       id="use7945"
       d="m 65.230689,43.447638 3.510616,0" />
    <path
       inkscape:connector-curvature="0"
       style="stroke:#999999;stroke-width:0.80000000999999998;stroke-linecap:round;stroke-linejoin:round;stroke-miterlimit:4;stroke-dasharray:none;stroke-opacity:1"
       id="use7950"
       d="m 302.66997,43.447638 -3.51062,0" />
    <path
       inkscape:connector-curvature="0"
       style="stroke:#999999;stroke-width:0.80000000999999998;stroke-linecap:round;stroke-linejoin:round;stroke-miterlimit:4;stroke-dasharray:none;stroke-opacity:1"
       id="use7965"
       d="m 65.230689,9.3819 3.510616,0" />
    <path
       inkscape:connector-curvature="0"
       style="stroke:#999999;stroke-width:0.80000000999999998;stroke-linecap:round;stroke-linejoin:round;stroke-miterlimit:4;stroke-dasharray:none;stroke-opacity:1"
       id="use7970"
       d="m 302.66997,9.3819 -3.51062,0" />
    <path
       inkscape:connector-curvature="0"
       style="stroke:#999999;stroke-width:0.80000000999999998;stroke-linecap:round;stroke-linejoin:round;stroke-miterlimit:4;stroke-dasharray:none;stroke-opacity:1"
       id="use7985"
       d="m 65.230689,-24.683839 3.510616,0" />
    <path
       inkscape:connector-curvature="0"
       style="stroke:#999999;stroke-width:0.80000000999999998;stroke-linecap:round;stroke-linejoin:round;stroke-miterlimit:4;stroke-dasharray:none;stroke-opacity:1"
       id="use7990"
       d="m 302.66997,-24.683839 -3.51062,0" />
    <g
       id="g14505">
      <g
         style="font-size:12.7680006px;font-style:normal;font-variant:normal;font-weight:normal;font-stretch:normal;line-height:125%;letter-spacing:0px;word-spacing:0px;fill:#000000;fill-opacity:1;stroke:none;font-family:Myriad Pro;-inkscape-font-specification:Myriad Pro"
         id="text8039">
        <path
           d="m 145.39927,176.11896 1.57044,0 0,-7.29044 2.47696,0 0,-1.31508 -6.49883,0 0,1.31508 2.45143,0 z"
           style="font-weight:600;text-align:center;line-height:125%;writing-mode:lr-tb;text-anchor:middle;font-family:Myriad Pro Light;-inkscape-font-specification:'Myriad Pro Light, Semi-Bold'"
           id="path14536" />
        <path
           d="m 151.97978,176.11896 0,-6.21794 -1.58322,0 0,6.21794 z m -0.79161,-8.80981 c -0.26573,0.005 -0.478,0.0873 -0.6368,0.24578 -0.1588,0.15854 -0.24019,0.36177 -0.24418,0.60967 0.003,0.24179 0.0827,0.44129 0.2378,0.59849 0.15507,0.15721 0.36521,0.2386 0.63041,0.24418 0.27743,-0.006 0.49502,-0.087 0.65276,-0.24418 0.15773,-0.1572 0.23806,-0.3567 0.24099,-0.59849 -0.009,-0.24791 -0.0902,-0.45113 -0.24419,-0.60967 -0.15401,-0.15852 -0.36627,-0.24045 -0.63679,-0.24578 z"
           style="font-weight:600;text-align:center;line-height:125%;writing-mode:lr-tb;text-anchor:middle;font-family:Myriad Pro Light;-inkscape-font-specification:'Myriad Pro Light, Semi-Bold'"
           id="path14538" />
        <path
           d="m 153.66338,176.11896 1.53214,0 0,-3.67714 c -2.7e-4,-0.0899 0.007,-0.17821 0.0207,-0.26493 0.0141,-0.0867 0.037,-0.16864 0.0686,-0.24578 0.0716,-0.22716 0.20295,-0.43038 0.39421,-0.60967 0.19125,-0.17927 0.43437,-0.27397 0.72936,-0.28408 0.36308,0.007 0.6328,0.14577 0.80916,0.41495 0.17635,0.2692 0.26413,0.62457 0.26334,1.06612 l 0,3.60053 1.53214,0 0,-3.72821 c 7.9e-4,-0.0904 0.009,-0.18087 0.0239,-0.27132 0.0152,-0.0904 0.0327,-0.17449 0.0527,-0.25216 0.0848,-0.23008 0.22157,-0.42426 0.41016,-0.58253 0.18859,-0.15827 0.41788,-0.24073 0.68787,-0.24738 0.37585,0.004 0.65514,0.14923 0.83789,0.4357 0.18273,0.28648 0.2737,0.69027 0.27291,1.21135 l 0,3.43455 1.53214,0 0,-3.66437 c -0.0221,-0.98365 -0.23967,-1.68163 -0.65275,-2.09393 -0.4131,-0.41229 -0.88924,-0.61231 -1.4284,-0.60008 -0.25404,2.7e-4 -0.48333,0.0316 -0.68787,0.0942 -0.20456,0.0625 -0.39235,0.15455 -0.56338,0.2761 -0.29367,0.17663 -0.54903,0.43624 -0.76607,0.77884 l -0.0255,0 c -0.13806,-0.34951 -0.35671,-0.62721 -0.65595,-0.8331 -0.29925,-0.20588 -0.65515,-0.31121 -1.06771,-0.316 -0.51869,0.0138 -0.93046,0.12981 -1.23528,0.34792 -0.30484,0.21812 -0.53147,0.45539 -0.67989,0.71181 l -0.0383,0 -0.0638,-0.91929 -1.3534,0 c 0.0189,0.26707 0.0322,0.55328 0.0399,0.85864 0.008,0.30537 0.0114,0.63627 0.0112,0.9927 z"
           style="font-weight:600;text-align:center;line-height:125%;writing-mode:lr-tb;text-anchor:middle;font-family:Myriad Pro Light;-inkscape-font-specification:'Myriad Pro Light, Semi-Bold'"
           id="path14540" />
        <path
           d="m 169.75937,173.45048 c 0.0133,-0.0708 0.025,-0.16226 0.0351,-0.27451 0.0101,-0.11225 0.0154,-0.24205 0.016,-0.38942 0.0144,-0.72377 -0.18035,-1.39887 -0.58413,-2.0253 -0.40379,-0.62641 -1.10283,-0.95997 -2.09712,-1.00067 -0.99802,0.0317 -1.75345,0.37373 -2.26629,1.02621 -0.51284,0.65249 -0.77032,1.42548 -0.77245,2.31896 0.007,0.96317 0.2894,1.72446 0.84587,2.28384 0.55646,0.5594 1.34275,0.84508 2.35886,0.85705 0.44793,-0.002 0.85437,-0.0391 1.21932,-0.11013 0.36495,-0.071 0.68201,-0.16199 0.95121,-0.27291 l -0.22982,-1.08527 c -0.23302,0.0899 -0.48838,0.15907 -0.76607,0.20748 -0.27771,0.0484 -0.5969,0.0729 -0.95759,0.0734 -0.51311,0.003 -0.95201,-0.12449 -1.31668,-0.38304 -0.36469,-0.25855 -0.56418,-0.66712 -0.5985,-1.22571 z m -4.16232,-1.09803 c 0.0274,-0.3426 0.15455,-0.67563 0.38144,-0.99909 0.2269,-0.32344 0.58067,-0.49687 1.06133,-0.52029 0.51257,0.0274 0.85996,0.20882 1.04217,0.54423 0.18221,0.33543 0.26467,0.66048 0.24738,0.97515 z"
           style="font-weight:600;text-align:center;line-height:125%;writing-mode:lr-tb;text-anchor:middle;font-family:Myriad Pro Light;-inkscape-font-specification:'Myriad Pro Light, Semi-Bold'"
           id="path14542" />
        <path
           d="m 175.20696,167.27085 c -0.38197,0.51338 -0.72883,1.19752 -1.04057,2.05243 -0.31175,0.85492 -0.47986,1.90294 -0.50433,3.14408 0.0189,1.23475 0.18539,2.2764 0.49954,3.12492 0.31414,0.84853 0.66259,1.52629 1.04536,2.03328 l 1.14911,0 c -0.41203,-0.60993 -0.75304,-1.34035 -1.02302,-2.19128 -0.26999,-0.85092 -0.40991,-1.83989 -0.41975,-2.96692 0.009,-1.14618 0.14736,-2.14792 0.41496,-3.00523 0.26759,-0.8573 0.61019,-1.58773 1.02781,-2.19128 z"
           style="font-weight:600;text-align:center;line-height:125%;writing-mode:lr-tb;text-anchor:middle;font-family:Myriad Pro Light;-inkscape-font-specification:'Myriad Pro Light, Semi-Bold'"
           id="path14544" />
        <path
           d="m 177.17047,175.81253 c 0.23274,0.12981 0.51098,0.23408 0.8347,0.31281 0.32371,0.0787 0.67536,0.11917 1.05494,0.1213 0.82591,-0.0106 1.45313,-0.19365 1.88166,-0.54902 0.42851,-0.35537 0.64397,-0.81927 0.64637,-1.3917 -0.005,-0.45591 -0.14231,-0.83682 -0.41336,-1.14272 -0.27105,-0.30589 -0.68654,-0.55912 -1.24646,-0.75968 -0.39155,-0.13433 -0.67138,-0.26467 -0.83948,-0.39102 -0.16812,-0.12634 -0.25004,-0.28541 -0.24579,-0.4772 0.001,-0.1947 0.0755,-0.35111 0.22344,-0.46921 0.14789,-0.1181 0.36282,-0.17875 0.64478,-0.18195 0.27823,0.005 0.53252,0.0458 0.76288,0.1213 0.23035,0.0756 0.41441,0.15428 0.5522,0.2362 l 0.30643,-1.1108 c -0.18194,-0.0992 -0.41496,-0.18486 -0.69904,-0.25695 -0.28408,-0.0721 -0.60009,-0.10985 -0.94801,-0.11331 -0.7291,0.0128 -1.30099,0.20109 -1.71568,0.56497 -0.41469,0.36389 -0.62589,0.82672 -0.6336,1.3885 -0.0101,0.36762 0.12183,0.70809 0.3958,1.02143 0.27398,0.31335 0.71234,0.57722 1.31509,0.79161 0.37771,0.12874 0.64371,0.26068 0.79799,0.3958 0.15427,0.13513 0.22875,0.30537 0.22344,0.51071 0.002,0.20748 -0.0782,0.37346 -0.2394,0.49795 -0.1612,0.12449 -0.41336,0.18833 -0.75649,0.19152 -0.28994,-0.005 -0.58147,-0.0524 -0.8746,-0.14205 -0.29313,-0.0896 -0.53359,-0.19125 -0.72138,-0.30483 z"
           style="font-weight:600;text-align:center;line-height:125%;writing-mode:lr-tb;text-anchor:middle;font-family:Myriad Pro Light;-inkscape-font-specification:'Myriad Pro Light, Semi-Bold'"
           id="path14546" />
        <path
           d="m 187.80574,176.11896 c -0.0316,-0.19471 -0.0545,-0.42134 -0.0686,-0.67989 -0.0141,-0.25855 -0.021,-0.52986 -0.0207,-0.81395 l 0,-2.24714 c 0.0175,-0.70116 -0.1612,-1.30657 -0.53625,-1.81622 -0.37506,-0.50965 -1.05175,-0.77671 -2.03009,-0.80118 -0.49502,0.005 -0.93498,0.0617 -1.31987,0.16917 -0.3849,0.10747 -0.69399,0.23408 -0.92726,0.37984 l 0.30642,1.02143 c 0.21573,-0.13645 0.47055,-0.24658 0.76448,-0.33037 0.29392,-0.0838 0.59663,-0.12687 0.90811,-0.12927 0.53305,0.0197 0.88098,0.14949 1.04377,0.38942 0.16279,0.23993 0.2362,0.47188 0.22025,0.69584 l 0,0.10215 c -1.15922,-0.006 -2.06148,0.18779 -2.70679,0.58093 -0.6453,0.39315 -0.97301,0.9826 -0.98312,1.76835 0.003,0.4905 0.17237,0.91715 0.50752,1.27997 0.33516,0.36282 0.81714,0.55328 1.44596,0.57136 0.40458,-0.004 0.76367,-0.0819 1.07729,-0.23301 0.3136,-0.15109 0.56736,-0.35005 0.76128,-0.5969 l 0.0383,0 0.10214,0.68947 z m -1.62151,-2.1833 c 2.6e-4,0.0519 -0.003,0.10773 -0.0112,0.16758 -0.008,0.0599 -0.021,0.1189 -0.0399,0.17715 -0.0734,0.23115 -0.21706,0.42958 -0.43092,0.5953 -0.21386,0.16572 -0.47879,0.25243 -0.79479,0.26014 -0.2551,0.001 -0.4663,-0.0713 -0.63361,-0.21705 -0.16731,-0.14576 -0.25403,-0.37133 -0.26014,-0.67669 0.021,-0.46337 0.24391,-0.77831 0.66871,-0.94482 0.4248,-0.16652 0.9254,-0.23887 1.50182,-0.21706 z"
           style="font-weight:600;text-align:center;line-height:125%;writing-mode:lr-tb;text-anchor:middle;font-family:Myriad Pro Light;-inkscape-font-specification:'Myriad Pro Light, Semi-Bold'"
           id="path14548" />
        <path
           d="m 189.37388,176.11896 1.53214,0 0,-3.67714 c -2.7e-4,-0.0899 0.007,-0.17821 0.0207,-0.26493 0.0141,-0.0867 0.037,-0.16864 0.0686,-0.24578 0.0716,-0.22716 0.20295,-0.43038 0.39421,-0.60967 0.19125,-0.17927 0.43437,-0.27397 0.72936,-0.28408 0.36308,0.007 0.6328,0.14577 0.80916,0.41495 0.17635,0.2692 0.26413,0.62457 0.26334,1.06612 l 0,3.60053 1.53214,0 0,-3.72821 c 7.9e-4,-0.0904 0.009,-0.18087 0.0239,-0.27132 0.0152,-0.0904 0.0327,-0.17449 0.0527,-0.25216 0.0848,-0.23008 0.22157,-0.42426 0.41016,-0.58253 0.18859,-0.15827 0.41788,-0.24073 0.68787,-0.24738 0.37585,0.004 0.65514,0.14923 0.83789,0.4357 0.18273,0.28648 0.2737,0.69027 0.27291,1.21135 l 0,3.43455 1.53214,0 0,-3.66437 c -0.0221,-0.98365 -0.23967,-1.68163 -0.65275,-2.09393 -0.4131,-0.41229 -0.88924,-0.61231 -1.4284,-0.60008 -0.25404,2.7e-4 -0.48333,0.0316 -0.68787,0.0942 -0.20456,0.0625 -0.39235,0.15455 -0.56338,0.2761 -0.29367,0.17663 -0.54902,0.43624 -0.76607,0.77884 l -0.0255,0 c -0.13806,-0.34951 -0.3567,-0.62721 -0.65595,-0.8331 -0.29925,-0.20588 -0.65515,-0.31121 -1.06771,-0.316 -0.51869,0.0138 -0.93045,0.12981 -1.23528,0.34792 -0.30484,0.21812 -0.53147,0.45539 -0.67989,0.71181 l -0.0383,0 -0.0638,-0.91929 -1.35339,0 c 0.0189,0.26707 0.0322,0.55328 0.0399,0.85864 0.008,0.30537 0.0114,0.63627 0.0112,0.9927 z"
           style="font-weight:600;text-align:center;line-height:125%;writing-mode:lr-tb;text-anchor:middle;font-family:Myriad Pro Light;-inkscape-font-specification:'Myriad Pro Light, Semi-Bold'"
           id="path14550" />
        <path
           d="m 200.19675,178.64699 1.57045,0 0,-3.2175 0.0255,0 c 0.16385,0.25244 0.39793,0.453 0.70223,0.60169 0.3043,0.14869 0.65329,0.22477 1.04697,0.22822 0.73813,0.002 1.38769,-0.27291 1.94869,-0.82352 0.56098,-0.55061 0.85623,-1.38691 0.88577,-2.50888 -0.0197,-0.98099 -0.27718,-1.75132 -0.77246,-2.31098 -0.49529,-0.55965 -1.11027,-0.8448 -1.84495,-0.85544 -0.47348,0.002 -0.8895,0.0971 -1.24806,0.28568 -0.35856,0.18859 -0.65329,0.45938 -0.88417,0.81235 l -0.0255,0 -0.0766,-0.95759 -1.37893,0 c 0.0133,0.29207 0.025,0.60807 0.0351,0.94801 0.0101,0.33995 0.0154,0.71341 0.016,1.12038 z m 1.57045,-6.09026 c 2.6e-4,-0.0644 0.006,-0.13033 0.0175,-0.1979 0.0114,-0.0676 0.0269,-0.13353 0.0463,-0.1979 0.0848,-0.35005 0.25668,-0.62988 0.5155,-0.83949 0.25881,-0.2096 0.55513,-0.31706 0.88896,-0.32238 0.50565,0.0144 0.88922,0.20907 1.1507,0.58412 0.26147,0.37506 0.39287,0.84428 0.39421,1.40766 -0.004,0.6219 -0.14312,1.11772 -0.41815,1.48745 -0.27505,0.36974 -0.6634,0.55913 -1.16507,0.56817 -0.33835,-0.006 -0.63201,-0.10906 -0.88098,-0.30962 -0.24897,-0.20056 -0.41495,-0.46337 -0.49794,-0.78841 -0.0362,-0.13832 -0.0532,-0.28302 -0.0511,-0.43411 z"
           style="font-weight:600;text-align:center;line-height:125%;writing-mode:lr-tb;text-anchor:middle;font-family:Myriad Pro Light;-inkscape-font-specification:'Myriad Pro Light, Semi-Bold'"
           id="path14552" />
        <path
           d="m 207.678,176.11896 1.58322,0 0,-9.06517 -1.58322,0 z"
           style="font-weight:600;text-align:center;line-height:125%;writing-mode:lr-tb;text-anchor:middle;font-family:Myriad Pro Light;-inkscape-font-specification:'Myriad Pro Light, Semi-Bold'"
           id="path14554" />
        <path
           d="m 216.24287,173.45048 c 0.0133,-0.0708 0.025,-0.16226 0.0351,-0.27451 0.0101,-0.11225 0.0154,-0.24205 0.016,-0.38942 0.0144,-0.72377 -0.18035,-1.39887 -0.58413,-2.0253 -0.40378,-0.62641 -1.10282,-0.95997 -2.09711,-1.00067 -0.99802,0.0317 -1.75345,0.37373 -2.26629,1.02621 -0.51285,0.65249 -0.77033,1.42548 -0.77246,2.31896 0.007,0.96317 0.28941,1.72446 0.84587,2.28384 0.55646,0.5594 1.34275,0.84508 2.35886,0.85705 0.44793,-0.002 0.85438,-0.0391 1.21933,-0.11013 0.36494,-0.071 0.68201,-0.16199 0.9512,-0.27291 l -0.22982,-1.08527 c -0.23302,0.0899 -0.48837,0.15907 -0.76607,0.20748 -0.2777,0.0484 -0.5969,0.0729 -0.95759,0.0734 -0.51311,0.003 -0.952,-0.12449 -1.31668,-0.38304 -0.36468,-0.25855 -0.56418,-0.66712 -0.59849,-1.22571 z m -4.16231,-1.09803 c 0.0274,-0.3426 0.15454,-0.67563 0.38144,-0.99909 0.22689,-0.32344 0.58066,-0.49687 1.06132,-0.52029 0.51257,0.0274 0.85997,0.20882 1.04218,0.54423 0.1822,0.33543 0.26466,0.66048 0.24737,0.97515 z"
           style="font-weight:600;text-align:center;line-height:125%;writing-mode:lr-tb;text-anchor:middle;font-family:Myriad Pro Light;-inkscape-font-specification:'Myriad Pro Light, Semi-Bold'"
           id="path14556" />
        <path
           d="m 217.17022,175.81253 c 0.23274,0.12981 0.51098,0.23408 0.83469,0.31281 0.32372,0.0787 0.67537,0.11917 1.05495,0.1213 0.82591,-0.0106 1.45313,-0.19365 1.88166,-0.54902 0.42851,-0.35537 0.64397,-0.81927 0.64637,-1.3917 -0.005,-0.45591 -0.14232,-0.83682 -0.41336,-1.14272 -0.27106,-0.30589 -0.68654,-0.55912 -1.24646,-0.75968 -0.39155,-0.13433 -0.67138,-0.26467 -0.83949,-0.39102 -0.16811,-0.12634 -0.25004,-0.28541 -0.24578,-0.4772 0.001,-0.1947 0.0755,-0.35111 0.22344,-0.46921 0.14789,-0.1181 0.36282,-0.17875 0.64478,-0.18195 0.27823,0.005 0.53252,0.0458 0.76287,0.1213 0.23035,0.0756 0.41442,0.15428 0.55221,0.2362 l 0.30643,-1.1108 c -0.18194,-0.0992 -0.41496,-0.18486 -0.69904,-0.25695 -0.28409,-0.0721 -0.60009,-0.10985 -0.94801,-0.11331 -0.7291,0.0128 -1.30099,0.20109 -1.71568,0.56497 -0.41469,0.36389 -0.62589,0.82672 -0.6336,1.3885 -0.0101,0.36762 0.12182,0.70809 0.3958,1.02143 0.27398,0.31335 0.71234,0.57722 1.31509,0.79161 0.37771,0.12874 0.64371,0.26068 0.79799,0.3958 0.15427,0.13513 0.22875,0.30537 0.22344,0.51071 0.002,0.20748 -0.0782,0.37346 -0.2394,0.49795 -0.1612,0.12449 -0.41336,0.18833 -0.7565,0.19152 -0.28993,-0.005 -0.58147,-0.0524 -0.87459,-0.14205 -0.29313,-0.0896 -0.53359,-0.19125 -0.72139,-0.30483 z"
           style="font-weight:600;text-align:center;line-height:125%;writing-mode:lr-tb;text-anchor:middle;font-family:Myriad Pro Light;-inkscape-font-specification:'Myriad Pro Light, Semi-Bold'"
           id="path14558" />
        <path
           d="m 223.54104,177.62556 c 0.38809,-0.51231 0.73867,-1.19219 1.05175,-2.03966 0.31308,-0.84746 0.48172,-1.89123 0.50593,-3.13131 -0.0186,-1.24699 -0.18567,-2.29608 -0.50114,-3.14727 -0.31547,-0.85118 -0.66765,-1.53001 -1.05654,-2.03647 l -1.13633,0 c 0.41149,0.60967 0.75037,1.34063 1.01663,2.19287 0.26627,0.85226 0.40405,1.84496 0.41336,2.9781 -0.009,1.13448 -0.14709,2.1309 -0.41336,2.98927 -0.26626,0.85837 -0.60514,1.58986 -1.01663,2.19447 z"
           style="font-weight:600;text-align:center;line-height:125%;writing-mode:lr-tb;text-anchor:middle;font-family:Myriad Pro Light;-inkscape-font-specification:'Myriad Pro Light, Semi-Bold'"
           id="path14560" />
      </g>
      <g
         transform="matrix(0,-1,1,0,0,0)"
         style="font-size:12.7680006px;font-style:normal;font-variant:normal;font-weight:normal;font-stretch:normal;line-height:125%;letter-spacing:0px;word-spacing:0px;fill:#000000;fill-opacity:1;stroke:none;font-family:Myriad Pro;-inkscape-font-specification:Myriad Pro"
         id="text9041">
        <path
           d="m -91.758405,34.481224 1.557676,0 0,-3.536691 0.791606,0 c 0.44022,0.0037 0.779099,0.117574 1.016638,0.34154 0.237531,0.223972 0.413621,0.612327 0.52827,1.165065 0.122087,0.537847 0.23221,0.978336 0.330368,1.321471 0.09815,0.343136 0.179542,0.579341 0.244185,0.708615 l 1.621515,0 c -0.08965,-0.178218 -0.191259,-0.48571 -0.304832,-0.922476 -0.113588,-0.436765 -0.237542,-0.929391 -0.371864,-1.477877 -0.106671,-0.417878 -0.257225,-0.769525 -0.451662,-1.054943 -0.194449,-0.28541 -0.443954,-0.487035 -0.748514,-0.604876 l 0,-0.0383 c 0.416811,-0.148954 0.77697,-0.406439 1.080478,-0.772455 0.303495,-0.366006 0.462561,-0.827775 0.477198,-1.38531 -0.0013,-0.365472 -0.06571,-0.694244 -0.193114,-0.986315 -0.127419,-0.292057 -0.309892,-0.537838 -0.547421,-0.737343 -0.284622,-0.240984 -0.644249,-0.416542 -1.078882,-0.526673 -0.434643,-0.110114 -0.960252,-0.164377 -1.576828,-0.16279 -0.458847,0.0011 -0.894549,0.0181 -1.307107,0.05107 -0.412562,0.03299 -0.768465,0.07555 -1.06771,0.127678 z m 1.557676,-7.405345 c 0.07634,-0.01994 0.194973,-0.0375 0.355903,-0.05267 0.160925,-0.01516 0.365742,-0.02313 0.614452,-0.02394 0.517094,-0.0016 0.925664,0.11013 1.225713,0.335156 0.300039,0.22504 0.453253,0.572963 0.459642,1.04377 -0.0056,0.433314 -0.160401,0.77645 -0.46443,1.029407 -0.304039,0.252967 -0.723781,0.382242 -1.259228,0.387823 l -0.932052,0 z"
           style="font-weight:600;text-align:center;line-height:125%;writing-mode:lr-tb;text-anchor:middle;font-family:Myriad Pro Light;-inkscape-font-specification:'Myriad Pro Light, Semi-Bold'"
           id="path14563" />
        <path
           d="m -79.649814,34.481224 c -0.03166,-0.19471 -0.05453,-0.421339 -0.06863,-0.679888 -0.0141,-0.258547 -0.02102,-0.529863 -0.02075,-0.813949 l 0,-2.247139 c 0.01755,-0.701163 -0.161199,-1.306571 -0.536249,-1.816225 -0.37506,-0.509643 -1.051755,-0.776704 -2.030086,-0.801181 -0.495023,0.0053 -0.934981,0.06172 -1.319876,0.169173 -0.384898,0.107469 -0.693986,0.234083 -0.927263,0.379844 l 0.306428,1.021426 c 0.215721,-0.136451 0.470546,-0.246573 0.764474,-0.330367 0.293924,-0.08378 0.596628,-0.126875 0.908112,-0.129275 0.533054,0.01969 0.880977,0.149495 1.043771,0.389419 0.162786,0.239934 0.236201,0.471883 0.220245,0.695847 l 0,0.102143 c -1.159216,-0.0058 -2.061476,0.187797 -2.706781,0.580936 -0.645309,0.393147 -0.973016,0.982594 -0.983124,1.768346 0.0032,0.490499 0.172366,0.917157 0.507522,1.279975 0.335154,0.36282 0.81714,0.553273 1.445957,0.571361 0.404578,-0.0043 0.763673,-0.08193 1.077286,-0.233013 0.313607,-0.151086 0.567367,-0.350051 0.761283,-0.596896 l 0.0383,0 0.102143,0.689463 z m -1.621516,-2.1833 c 2.62e-4,0.05187 -0.0035,0.107731 -0.01117,0.167578 -0.0077,0.05985 -0.02102,0.118902 -0.0399,0.177154 -0.07342,0.231152 -0.217057,0.429585 -0.430915,0.5953 -0.213864,0.165717 -0.478796,0.252432 -0.794797,0.260145 -0.255094,0.0011 -0.466295,-0.07129 -0.633604,-0.217054 -0.167314,-0.145765 -0.254029,-0.371329 -0.260145,-0.676695 0.02101,-0.463364 0.243917,-0.778303 0.668716,-0.94482 0.424793,-0.166511 0.925398,-0.238862 1.501816,-0.217053 z"
           style="font-weight:600;text-align:center;line-height:125%;writing-mode:lr-tb;text-anchor:middle;font-family:Myriad Pro Light;-inkscape-font-specification:'Myriad Pro Light, Semi-Bold'"
           id="path14565" />
        <path
           d="m -78.081681,34.481224 1.53214,0 0,-3.677137 c -2.68e-4,-0.0899 0.0066,-0.178214 0.02075,-0.264933 0.0141,-0.08671 0.03697,-0.168637 0.06863,-0.24578 0.07155,-0.227157 0.202953,-0.430378 0.394207,-0.609665 0.191249,-0.179276 0.43437,-0.273971 0.729363,-0.284084 0.363081,0.0075 0.632801,0.145771 0.809161,0.414955 0.176351,0.269192 0.26413,0.624564 0.263337,1.066114 l 0,3.60053 1.53214,0 0,-3.728208 c 7.92e-4,-0.09043 0.0088,-0.180874 0.02394,-0.271317 0.01516,-0.09043 0.03271,-0.17449 0.05267,-0.252164 0.08485,-0.230083 0.221569,-0.42426 0.410167,-0.582533 0.188585,-0.158263 0.417874,-0.240722 0.687867,-0.247377 0.375846,0.004 0.655142,0.149229 0.837889,0.435703 0.182732,0.286482 0.273702,0.690265 0.272913,1.211348 l 0,3.434548 1.53214,0 0,-3.664369 c -0.02209,-0.983651 -0.239672,-1.681625 -0.652755,-2.093925 -0.413102,-0.412289 -0.889236,-0.612318 -1.428402,-0.600088 -0.254034,2.72e-4 -0.483323,0.03166 -0.687867,0.09416 -0.204558,0.06252 -0.392352,0.154551 -0.563381,0.276105 -0.293666,0.176628 -0.549023,0.43624 -0.76607,0.778838 l -0.02554,0 c -0.138058,-0.349514 -0.356707,-0.627215 -0.655948,-0.833102 -0.299251,-0.205875 -0.655154,-0.311209 -1.06771,-0.316003 -0.518697,0.01384 -0.930459,0.129812 -1.235288,0.347923 -0.304835,0.218123 -0.531463,0.455392 -0.679887,0.711807 l -0.0383,0 -0.06384,-0.919284 -1.35339,0 c 0.01888,0.267066 0.03218,0.553278 0.0399,0.858637 0.0077,0.305369 0.01144,0.636268 0.01117,0.992699 z"
           style="font-weight:600;text-align:center;line-height:125%;writing-mode:lr-tb;text-anchor:middle;font-family:Myriad Pro Light;-inkscape-font-specification:'Myriad Pro Light, Semi-Bold'"
           id="path14567" />
        <path
           d="m -67.258806,37.009256 1.570444,0 0,-3.217495 0.02554,0 c 0.163851,0.252431 0.397928,0.452992 0.702231,0.601684 0.304296,0.148692 0.653284,0.224767 1.046962,0.228225 0.738136,0.0016 1.387698,-0.272912 1.948691,-0.823525 0.56098,-0.550612 0.856236,-1.386904 0.885769,-2.50888 -0.01969,-0.980991 -0.277176,-1.751316 -0.772454,-2.310978 -0.495292,-0.559651 -1.110275,-0.844799 -1.844953,-0.855445 -0.473478,0.0019 -0.889496,0.0971 -1.248056,0.28568 -0.358566,0.188597 -0.65329,0.459382 -0.884172,0.812354 l -0.02554,0 -0.07661,-0.957588 -1.378926,0 c 0.0133,0.29207 0.025,0.608073 0.03511,0.948011 0.01011,0.339949 0.01543,0.713408 0.01596,1.120378 z m 1.570444,-6.090258 c 2.63e-4,-0.06437 0.0061,-0.130335 0.01756,-0.197902 0.01144,-0.06756 0.02686,-0.133526 0.04628,-0.197901 0.08485,-0.350048 0.256684,-0.629876 0.515501,-0.839486 0.258812,-0.2096 0.555132,-0.317062 0.888961,-0.322387 0.505655,0.01437 0.889222,0.209078 1.150701,0.584128 0.26147,0.37506 0.392872,0.844277 0.394207,1.407654 -0.0037,0.621903 -0.143111,1.11772 -0.418146,1.487453 -0.275046,0.369736 -0.6634,0.559126 -1.165065,0.568169 -0.338351,-0.0059 -0.632011,-0.109058 -0.880981,-0.30962 -0.248976,-0.20056 -0.414957,-0.463365 -0.497946,-0.788414 -0.03618,-0.138316 -0.0532,-0.283018 -0.05107,-0.434107 z"
           style="font-weight:600;text-align:center;line-height:125%;writing-mode:lr-tb;text-anchor:middle;font-family:Myriad Pro Light;-inkscape-font-specification:'Myriad Pro Light, Semi-Bold'"
           id="path14569" />
        <path
           d="m -55.384986,34.481224 0,-5.043295 1.35339,0 0,-1.174641 -1.366158,0 0,-0.319196 c -0.0051,-0.3942 0.07208,-0.726163 0.231417,-0.995891 0.159329,-0.269713 0.431177,-0.410159 0.815546,-0.421339 0.140176,8.06e-4 0.265194,0.01198 0.375055,0.03352 0.109852,0.02155 0.206143,0.04868 0.288872,0.0814 l 0.114911,-1.212945 c -0.127417,-0.04548 -0.274779,-0.08218 -0.442087,-0.110123 -0.167316,-0.02792 -0.356173,-0.04228 -0.566573,-0.04309 -0.273447,-0.0021 -0.553276,0.04363 -0.839485,0.137255 -0.286214,0.09364 -0.546891,0.247917 -0.78203,0.462833 -0.265998,0.261483 -0.458579,0.578019 -0.577745,0.949608 -0.119167,0.371605 -0.177686,0.761555 -0.175557,1.169853 l 0,0.268125 -0.842677,0 0,1.174641 0.842677,0 0,5.043295 z"
           style="font-weight:600;text-align:center;line-height:125%;writing-mode:lr-tb;text-anchor:middle;font-family:Myriad Pro Light;-inkscape-font-specification:'Myriad Pro Light, Semi-Bold'"
           id="path14571" />
        <path
           d="m -47.502591,28.263288 -1.570444,0 0,3.753744 c -5.37e-4,0.08964 -0.009,0.175294 -0.02554,0.256952 -0.0165,0.08166 -0.03778,0.157738 -0.06384,0.228225 -0.08353,0.208277 -0.226102,0.398199 -0.427723,0.569765 -0.201629,0.171569 -0.459114,0.26254 -0.772454,0.272913 -0.4115,-0.0061 -0.708884,-0.159863 -0.892152,-0.461239 -0.183275,-0.301372 -0.273181,-0.713666 -0.269721,-1.236884 l 0,-3.383476 -1.570444,0 0,3.651601 c 0.01942,1.000947 0.23913,1.705837 0.65914,2.114673 0.420007,0.408836 0.923804,0.606206 1.511392,0.592108 0.552206,-0.01729 0.989504,-0.142308 1.311896,-0.375055 0.322383,-0.232747 0.549012,-0.469483 0.679887,-0.710211 l 0.02554,0 0.07661,0.94482 1.378926,0 c -0.01331,-0.254824 -0.02501,-0.536781 -0.03511,-0.845869 -0.01011,-0.309087 -0.01543,-0.648498 -0.01596,-1.018235 z"
           style="font-weight:600;text-align:center;line-height:125%;writing-mode:lr-tb;text-anchor:middle;font-family:Myriad Pro Light;-inkscape-font-specification:'Myriad Pro Light, Semi-Bold'"
           id="path14573" />
        <path
           d="m -45.812555,34.481224 1.583212,0 0,-3.651601 c -5.35e-4,-0.0907 0.0037,-0.180608 0.01277,-0.269721 0.009,-0.0891 0.02606,-0.169435 0.05107,-0.240993 0.08458,-0.244978 0.231414,-0.457243 0.44049,-0.636795 0.20907,-0.179543 0.470811,-0.273706 0.785222,-0.282489 0.423729,0.0096 0.72856,0.159603 0.914496,0.450066 0.185927,0.290473 0.276898,0.663932 0.272913,1.120378 l 0,3.511155 1.570444,0 0,-3.689905 c -0.02421,-0.971415 -0.256693,-1.661941 -0.697443,-2.071581 -0.440762,-0.409629 -0.944559,-0.608594 -1.511393,-0.596896 -0.518165,0.01437 -0.943759,0.132472 -1.276784,0.354307 -0.33303,0.221847 -0.567107,0.461244 -0.702231,0.718191 l -0.0383,0 -0.07661,-0.932052 -1.378926,0 c 0.01888,0.267066 0.03218,0.553278 0.0399,0.858637 0.0077,0.305369 0.01144,0.636268 0.01117,0.992699 z"
           style="font-weight:600;text-align:center;line-height:125%;writing-mode:lr-tb;text-anchor:middle;font-family:Myriad Pro Light;-inkscape-font-specification:'Myriad Pro Light, Semi-Bold'"
           id="path14575" />
        <path
           d="m -34.152033,33.127833 c -0.151357,0.06597 -0.327446,0.12236 -0.528269,0.169174 -0.200832,0.04682 -0.437569,0.07129 -0.710211,0.07341 -0.548488,-0.0037 -0.999618,-0.178216 -1.35339,-0.523481 -0.353778,-0.345262 -0.536784,-0.838951 -0.549017,-1.481069 -0.0013,-0.581199 0.164117,-1.059461 0.496349,-1.434786 0.332227,-0.375316 0.800913,-0.569493 1.406058,-0.582532 0.279292,0.0029 0.515497,0.029 0.708615,0.0782 0.193109,0.04921 0.352707,0.10401 0.478794,0.164386 l 0.280892,-1.174641 c -0.183809,-0.08485 -0.409906,-0.154538 -0.678291,-0.209074 -0.268395,-0.05452 -0.548755,-0.08272 -0.841081,-0.08459 -1.099367,0.02182 -1.948959,0.342077 -2.54878,0.960779 -0.599823,0.618713 -0.90359,1.404998 -0.911304,2.358858 0.01224,0.975411 0.303768,1.744141 0.874597,2.30619 0.570826,0.562051 1.347536,0.848795 2.33013,0.860233 0.393405,-0.0037 0.742924,-0.03777 1.048559,-0.102142 0.305625,-0.06437 0.543426,-0.136723 0.713403,-0.217053 z"
           style="font-weight:600;text-align:center;line-height:125%;writing-mode:lr-tb;text-anchor:middle;font-family:Myriad Pro Light;-inkscape-font-specification:'Myriad Pro Light, Semi-Bold'"
           id="path14577" />
        <path
           d="m -32.502118,26.858826 0,1.404462 -0.893748,0 0,1.174641 0.893748,0 0,2.923834 c -5.33e-4,0.407509 0.03884,0.754368 0.118103,1.040579 0.07926,0.286213 0.201624,0.518161 0.367075,0.695847 0.148956,0.160928 0.33941,0.285946 0.571361,0.375055 0.231947,0.08911 0.492623,0.134328 0.78203,0.135658 0.250831,-7.98e-4 0.473736,-0.01516 0.668715,-0.04309 0.194972,-0.02793 0.350846,-0.06464 0.467622,-0.110123 l -0.02554,-1.200176 c -0.07023,0.01995 -0.15641,0.03751 -0.258549,0.05267 -0.102146,0.01516 -0.220248,0.02314 -0.354307,0.02394 -0.296057,-7.97e-4 -0.50513,-0.09815 -0.62722,-0.292064 -0.122095,-0.19391 -0.181146,-0.47959 -0.177153,-0.857041 l 0,-2.745085 1.493836,0 0,-1.174641 -1.493836,0 0,-1.774729 z"
           style="font-weight:600;text-align:center;line-height:125%;writing-mode:lr-tb;text-anchor:middle;font-family:Myriad Pro Light;-inkscape-font-specification:'Myriad Pro Light, Semi-Bold'"
           id="path14579" />
        <path
           d="m -26.69828,34.481224 0,-6.217936 -1.583212,0 0,6.217936 z m -0.791606,-8.809807 c -0.265732,0.0053 -0.477997,0.08726 -0.636796,0.245781 -0.158801,0.158542 -0.240196,0.361764 -0.244185,0.609664 0.0035,0.241799 0.08272,0.441296 0.237801,0.598492 0.155075,0.157212 0.365212,0.238606 0.630412,0.244185 0.277433,-0.0056 0.495018,-0.08697 0.652756,-0.244185 0.157733,-0.157196 0.238064,-0.356694 0.240993,-0.598492 -0.0088,-0.247901 -0.09018,-0.451122 -0.244186,-0.609664 -0.154014,-0.158525 -0.366279,-0.240452 -0.636795,-0.245781 z"
           style="font-weight:600;text-align:center;line-height:125%;writing-mode:lr-tb;text-anchor:middle;font-family:Myriad Pro Light;-inkscape-font-specification:'Myriad Pro Light, Semi-Bold'"
           id="path14581" />
        <path
           d="m -22.192989,28.122842 c -0.955196,0.0096 -1.726054,0.303242 -2.312574,0.88098 -0.586523,0.57775 -0.888163,1.382122 -0.90492,2.413121 0.01968,1.004938 0.318663,1.788031 0.89694,2.349282 0.578275,0.561253 1.317744,0.846401 2.218412,0.855445 0.825649,0.0051 1.555542,-0.26041 2.189683,-0.796394 0.63413,-0.535982 0.968221,-1.372806 1.002276,-2.510475 -0.01304,-0.959712 -0.296593,-1.727909 -0.850658,-2.304595 -0.554076,-0.576675 -1.300462,-0.872462 -2.239159,-0.887364 z m -0.0383,1.149105 c 0.531989,0.02607 0.917151,0.251638 1.155489,0.676695 0.238328,0.425067 0.355366,0.89322 0.351115,1.404462 -0.0075,0.636266 -0.148963,1.148043 -0.42453,1.535332 -0.275577,0.387293 -0.640524,0.586258 -1.094842,0.596897 -0.483319,-0.01277 -0.860502,-0.21386 -1.13155,-0.603281 -0.271053,-0.389417 -0.408839,-0.890554 -0.413358,-1.503412 -0.0045,-0.540235 0.116238,-1.020625 0.362287,-1.44117 0.246044,-0.420536 0.644507,-0.642376 1.195389,-0.665523 z"
           style="font-weight:600;text-align:center;line-height:125%;writing-mode:lr-tb;text-anchor:middle;font-family:Myriad Pro Light;-inkscape-font-specification:'Myriad Pro Light, Semi-Bold'"
           id="path14583" />
        <path
           d="m -17.807741,34.481224 1.583212,0 0,-3.651601 c -5.35e-4,-0.0907 0.0037,-0.180608 0.01277,-0.269721 0.009,-0.0891 0.02606,-0.169435 0.05107,-0.240993 0.08458,-0.244978 0.231414,-0.457243 0.44049,-0.636795 0.20907,-0.179543 0.470811,-0.273706 0.785222,-0.282489 0.423729,0.0096 0.72856,0.159603 0.914496,0.450066 0.185927,0.290473 0.276898,0.663932 0.272913,1.120378 l 0,3.511155 1.570444,0 0,-3.689905 c -0.02421,-0.971415 -0.256693,-1.661941 -0.697443,-2.071581 -0.440762,-0.409629 -0.944559,-0.608594 -1.511393,-0.596896 -0.518165,0.01437 -0.943759,0.132472 -1.276783,0.354307 -0.333031,0.221847 -0.567107,0.461244 -0.702231,0.718191 l -0.0383,0 -0.07661,-0.932052 -1.378926,0 c 0.01889,0.267066 0.03219,0.553278 0.0399,0.858637 0.0077,0.305369 0.01144,0.636268 0.01117,0.992699 z"
           style="font-weight:600;text-align:center;line-height:125%;writing-mode:lr-tb;text-anchor:middle;font-family:Myriad Pro Light;-inkscape-font-specification:'Myriad Pro Light, Semi-Bold'"
           id="path14585" />
      </g>
      <g
         style="font-size:12.7680006px;font-style:normal;font-variant:normal;font-weight:normal;font-stretch:normal;line-height:125%;letter-spacing:0px;word-spacing:0px;fill:#000000;fill-opacity:1;stroke:none;font-family:Myriad Pro;-inkscape-font-specification:Myriad Pro"
         id="text9045">
        <path
           d="m 65.300869,150.82003 c -0.857575,0.006 -1.549166,0.37719 -2.074773,1.11399 -0.52561,0.73682 -0.795863,1.804 -0.810758,3.20154 0.02421,1.37866 0.282222,2.43254 0.77405,3.16163 0.491826,0.7291 1.148837,1.09671 1.971035,1.10282 0.9246,-0.006 1.635342,-0.3833 2.132229,-1.13155 0.496875,-0.74824 0.747976,-1.83085 0.753302,-3.24781 -0.0051,-1.33131 -0.243925,-2.36178 -0.716595,-3.09142 -0.472681,-0.72962 -1.148844,-1.09935 -2.02849,-1.1092 z m -0.06384,0.86821 c 0.578539,0.0133 1.004665,0.32186 1.27838,0.92567 0.273705,0.60382 0.409363,1.42309 0.406974,2.45781 0.0011,1.07143 -0.138323,1.91305 -0.418146,2.52484 -0.279833,0.61179 -0.706491,0.92354 -1.279976,0.93524 -0.5171,-0.006 -0.92567,-0.30031 -1.225712,-0.88258 -0.300046,-0.58226 -0.45326,-1.41589 -0.459642,-2.5009 0.0093,-1.13287 0.169438,-1.99204 0.48039,-2.5775 0.310948,-0.58545 0.716858,-0.87965 1.217732,-0.88258 z"
           style=""
           id="path14588" />
      </g>
      <g
         style="font-size:12.7680006px;font-style:normal;font-variant:normal;font-weight:normal;font-stretch:normal;line-height:125%;letter-spacing:0px;word-spacing:0px;fill:#000000;fill-opacity:1;stroke:none;font-family:Myriad Pro;-inkscape-font-specification:Myriad Pro"
         id="text9049">
        <path
           d="m 111.98006,159.25957 0,-0.93205 -3.72821,0 0,-0.0255 0.66393,-0.61286 c 0.88444,-0.82724 1.57975,-1.58906 2.08595,-2.28544 0.50618,-0.69637 0.7642,-1.41988 0.77405,-2.17053 0.006,-0.62003 -0.19419,-1.17065 -0.60009,-1.65184 -0.40592,-0.48118 -1.05282,-0.73494 -1.94071,-0.76128 -0.48093,0.005 -0.92035,0.0846 -1.31828,0.23939 -0.39793,0.15482 -0.7416,0.35592 -1.031,0.60328 l 0.35749,0.79161 c 0.19391,-0.1689 0.44129,-0.32584 0.74214,-0.47081 0.30084,-0.14496 0.64078,-0.2221 1.01983,-0.23142 0.61045,0.0149 1.03977,0.17982 1.28795,0.49475 0.24817,0.31495 0.36787,0.69054 0.3591,1.12676 -0.002,0.60223 -0.2535,1.22998 -0.7549,1.88326 -0.50141,0.65329 -1.27971,1.47256 -2.33492,2.45781 l -0.88098,0.85544 0,0.68947 z"
           style=""
           id="path14591" />
        <path
           d="m 116.01059,150.82003 c -0.85757,0.006 -1.54916,0.37719 -2.07477,1.11399 -0.52561,0.73682 -0.79586,1.804 -0.81076,3.20154 0.0242,1.37866 0.28222,2.43254 0.77405,3.16163 0.49183,0.7291 1.14884,1.09671 1.97104,1.10282 0.9246,-0.006 1.63534,-0.3833 2.13223,-1.13155 0.49687,-0.74824 0.74797,-1.83085 0.7533,-3.24781 -0.005,-1.33131 -0.24393,-2.36178 -0.7166,-3.09142 -0.47268,-0.72962 -1.14884,-1.09935 -2.02849,-1.1092 z m -0.0638,0.86821 c 0.57854,0.0133 1.00467,0.32186 1.27838,0.92567 0.27371,0.60382 0.40937,1.42309 0.40698,2.45781 0.001,1.07143 -0.13832,1.91305 -0.41815,2.52484 -0.27983,0.61179 -0.70649,0.92354 -1.27997,0.93524 -0.5171,-0.006 -0.92567,-0.30031 -1.22572,-0.88258 -0.30004,-0.58226 -0.45326,-1.41589 -0.45964,-2.5009 0.009,-1.13287 0.16944,-1.99204 0.48039,-2.5775 0.31095,-0.58545 0.71686,-0.87965 1.21773,-0.88258 z"
           style=""
           id="path14593" />
      </g>
      <g
         style="font-size:12.7680006px;font-style:normal;font-variant:normal;font-weight:normal;font-stretch:normal;line-height:125%;letter-spacing:0px;word-spacing:0px;fill:#000000;fill-opacity:1;stroke:none;font-family:Myriad Pro;-inkscape-font-specification:Myriad Pro"
         id="text9053">
        <path
           d="m 158.89337,159.25957 0,-2.25991 1.16188,0 0,-0.88098 -1.16188,0 0,-5.15821 -1.21294,0 -3.70267,5.29866 0,0.74053 3.85588,0 0,2.25991 z m -3.77928,-3.14089 0,-0.0255 2.03009,-2.82169 c 0.11331,-0.18832 0.22503,-0.37983 0.33516,-0.57455 0.11011,-0.1947 0.22822,-0.41176 0.3543,-0.65116 l 0.0383,0 c -0.0255,0.43411 -0.0383,0.86822 -0.0383,1.30232 l 0,2.77062 z"
           style=""
           id="path14596" />
        <path
           d="m 163.68998,150.82003 c -0.85758,0.006 -1.54917,0.37719 -2.07478,1.11399 -0.52561,0.73682 -0.79586,1.804 -0.81076,3.20154 0.0242,1.37866 0.28223,2.43254 0.77405,3.16163 0.49183,0.7291 1.14884,1.09671 1.97104,1.10282 0.9246,-0.006 1.63534,-0.3833 2.13223,-1.13155 0.49687,-0.74824 0.74797,-1.83085 0.7533,-3.24781 -0.005,-1.33131 -0.24392,-2.36178 -0.71659,-3.09142 -0.47269,-0.72962 -1.14885,-1.09935 -2.02849,-1.1092 z m -0.0638,0.86821 c 0.57853,0.0133 1.00466,0.32186 1.27838,0.92567 0.2737,0.60382 0.40936,1.42309 0.40697,2.45781 0.001,1.07143 -0.13832,1.91305 -0.41815,2.52484 -0.27983,0.61179 -0.70649,0.92354 -1.27997,0.93524 -0.5171,-0.006 -0.92567,-0.30031 -1.22571,-0.88258 -0.30005,-0.58226 -0.45326,-1.41589 -0.45965,-2.5009 0.009,-1.13287 0.16944,-1.99204 0.48039,-2.5775 0.31095,-0.58545 0.71686,-0.87965 1.21774,-0.88258 z"
           style=""
           id="path14598" />
      </g>
      <g
         style="font-size:12.7680006px;font-style:normal;font-variant:normal;font-weight:normal;font-stretch:normal;line-height:125%;letter-spacing:0px;word-spacing:0px;fill:#000000;fill-opacity:1;stroke:none;font-family:Myriad Pro;-inkscape-font-specification:Myriad Pro"
         id="text9057">
        <path
           d="m 206.46419,150.8328 c -0.10268,-5.3e-4 -0.22291,0.004 -0.36069,0.0128 -0.13779,0.009 -0.28994,0.0261 -0.45645,0.0511 -0.52561,0.0647 -1.01292,0.20031 -1.46192,0.40698 -0.449,0.20669 -0.84693,0.4796 -1.19379,0.81874 -0.41602,0.41123 -0.75224,0.93259 -1.00866,1.56406 -0.25642,0.63148 -0.38836,1.35712 -0.3958,2.17691 0.0114,1.09139 0.27903,1.95056 0.80278,2.57751 0.52374,0.62695 1.23501,0.94668 2.13382,0.95918 0.86901,-0.0269 1.5441,-0.32425 2.0253,-0.89215 0.48118,-0.5679 0.72536,-1.24513 0.73255,-2.03168 -0.0125,-0.82113 -0.24605,-1.47069 -0.70063,-1.94869 -0.4546,-0.47799 -1.05522,-0.72218 -1.80186,-0.73256 -0.46098,0.007 -0.86051,0.10135 -1.19858,0.28249 -0.33809,0.18115 -0.60674,0.40618 -0.80597,0.6751 l -0.0383,0 c 0.0939,-0.70222 0.37851,-1.32785 0.85385,-1.87687 0.47533,-0.54901 1.15256,-0.90651 2.03168,-1.0725 0.16039,-0.0253 0.31201,-0.0417 0.45486,-0.0495 0.14283,-0.008 0.27211,-0.008 0.38782,-0.002 z m -1.94071,7.699 c -0.58839,-0.0136 -1.03633,-0.2386 -1.34382,-0.6751 -0.30749,-0.4365 -0.46815,-1.00307 -0.48198,-1.69972 5.3e-4,-0.10214 0.0122,-0.1947 0.0351,-0.2777 0.0229,-0.083 0.0537,-0.1564 0.0926,-0.22024 0.1588,-0.3051 0.38064,-0.55035 0.66552,-0.73575 0.28488,-0.18539 0.59929,-0.28062 0.94322,-0.28568 0.52375,0.005 0.93817,0.1737 1.24327,0.50593 0.3051,0.33223 0.46097,0.79772 0.46762,1.39648 -0.007,0.60248 -0.15587,1.08287 -0.44687,1.44117 -0.291,0.3583 -0.68255,0.54183 -1.17464,0.55061 z"
           style=""
           id="path14601" />
        <path
           d="m 211.05651,150.82003 c -0.85758,0.006 -1.54917,0.37719 -2.07478,1.11399 -0.52561,0.73682 -0.79586,1.804 -0.81075,3.20154 0.0242,1.37866 0.28222,2.43254 0.77405,3.16163 0.49182,0.7291 1.14883,1.09671 1.97103,1.10282 0.9246,-0.006 1.63534,-0.3833 2.13223,-1.13155 0.49687,-0.74824 0.74798,-1.83085 0.7533,-3.24781 -0.005,-1.33131 -0.24392,-2.36178 -0.71659,-3.09142 -0.47268,-0.72962 -1.14885,-1.09935 -2.02849,-1.1092 z m -0.0638,0.86821 c 0.57854,0.0133 1.00466,0.32186 1.27838,0.92567 0.2737,0.60382 0.40936,1.42309 0.40697,2.45781 0.001,1.07143 -0.13832,1.91305 -0.41814,2.52484 -0.27984,0.61179 -0.7065,0.92354 -1.27998,0.93524 -0.5171,-0.006 -0.92567,-0.30031 -1.22571,-0.88258 -0.30005,-0.58226 -0.45326,-1.41589 -0.45964,-2.5009 0.009,-1.13287 0.16943,-1.99204 0.48039,-2.5775 0.31094,-0.58545 0.71685,-0.87965 1.21773,-0.88258 z"
           style=""
           id="path14603" />
      </g>
      <g
         style="font-size:12.7680006px;font-style:normal;font-variant:normal;font-weight:normal;font-stretch:normal;line-height:125%;letter-spacing:0px;word-spacing:0px;fill:#000000;fill-opacity:1;stroke:none;font-family:Myriad Pro;-inkscape-font-specification:Myriad Pro"
         id="text9061">
        <path
           d="m 251.87729,159.40001 c 0.81022,-0.0104 1.4784,-0.23221 2.00455,-0.66552 0.52613,-0.43331 0.79851,-1.01584 0.81714,-1.7476 -0.005,-0.50512 -0.15455,-0.93763 -0.44847,-1.29753 -0.29393,-0.35989 -0.70197,-0.64238 -1.22412,-0.84746 l 0,-0.0383 c 0.5038,-0.24923 0.85917,-0.54555 1.06612,-0.88896 0.20694,-0.34339 0.30695,-0.69398 0.30004,-1.05175 0,-0.53757 -0.2011,-1.00732 -0.60328,-1.40925 -0.40219,-0.40191 -1.00547,-0.61311 -1.80984,-0.6336 -0.74373,0.01 -1.35339,0.2136 -1.82899,0.61126 -0.4756,0.39767 -0.72138,0.93019 -0.73734,1.59757 -0.003,0.36336 0.10161,0.70916 0.31281,1.03739 0.2112,0.32824 0.54529,0.60382 1.00227,0.82672 l 0.0128,0.0383 c -0.5155,0.21706 -0.91769,0.51072 -1.20656,0.88098 -0.28887,0.37027 -0.4357,0.81715 -0.44049,1.34062 0.007,0.6243 0.25429,1.15044 0.74053,1.57843 0.48624,0.42799 1.1672,0.65089 2.04286,0.66871 z m 0.0255,-0.81714 c -0.53518,-0.0133 -0.94907,-0.17183 -1.24167,-0.4756 -0.2926,-0.30377 -0.43198,-0.67297 -0.41814,-1.10761 0.002,-0.40006 0.12927,-0.74904 0.38303,-1.04696 0.25376,-0.29791 0.62403,-0.51922 1.1108,-0.66393 0.56764,0.15215 1.01238,0.36814 1.33424,0.64797 0.32185,0.27983 0.48571,0.66818 0.49156,1.16506 -0.006,0.43597 -0.15667,0.78975 -0.45166,1.06133 -0.29499,0.27158 -0.69771,0.4115 -1.20816,0.41974 z m 0.0128,-6.95847 c 0.49981,0.0149 0.85996,0.15748 1.08048,0.42772 0.22051,0.27026 0.3285,0.57882 0.32398,0.92567 -0.008,0.37719 -0.12927,0.69213 -0.36388,0.94482 -0.23461,0.2527 -0.53466,0.43996 -0.90013,0.56179 -0.48492,-0.12369 -0.86848,-0.30722 -1.1507,-0.55062 -0.28223,-0.24338 -0.4264,-0.57055 -0.43251,-0.98152 0.002,-0.36814 0.12581,-0.67882 0.37186,-0.93206 0.24604,-0.25322 0.60301,-0.38515 1.0709,-0.3958 z"
           style=""
           id="path14606" />
        <path
           d="m 258.52523,150.82003 c -0.85758,0.006 -1.54917,0.37719 -2.07478,1.11399 -0.52561,0.73682 -0.79586,1.804 -0.81075,3.20154 0.0242,1.37866 0.28222,2.43254 0.77405,3.16163 0.49182,0.7291 1.14883,1.09671 1.97103,1.10282 0.9246,-0.006 1.63534,-0.3833 2.13223,-1.13155 0.49687,-0.74824 0.74797,-1.83085 0.7533,-3.24781 -0.005,-1.33131 -0.24392,-2.36178 -0.71659,-3.09142 -0.47268,-0.72962 -1.14885,-1.09935 -2.02849,-1.1092 z m -0.0638,0.86821 c 0.57854,0.0133 1.00466,0.32186 1.27838,0.92567 0.2737,0.60382 0.40936,1.42309 0.40697,2.45781 0.001,1.07143 -0.13832,1.91305 -0.41815,2.52484 -0.27983,0.61179 -0.70649,0.92354 -1.27997,0.93524 -0.5171,-0.006 -0.92567,-0.30031 -1.22571,-0.88258 -0.30005,-0.58226 -0.45326,-1.41589 -0.45965,-2.5009 0.009,-1.13287 0.16944,-1.99204 0.4804,-2.5775 0.31094,-0.58545 0.71685,-0.87965 1.21773,-0.88258 z"
           style=""
           id="path14608" />
      </g>
      <g
         style="font-size:12.7680006px;font-style:normal;font-variant:normal;font-weight:normal;font-stretch:normal;line-height:125%;letter-spacing:0px;word-spacing:0px;fill:#000000;fill-opacity:1;stroke:none;font-family:Myriad Pro;-inkscape-font-specification:Myriad Pro"
         id="text9065">
        <path
           d="m 295.41568,159.25957 1.08526,0 0,-8.2991 -0.95759,0 -1.81303,0.97036 0.21705,0.85544 1.44277,-0.77883 0.0255,0 z"
           style=""
           id="path14611" />
        <path
           d="m 302.3062,150.82003 c -0.85757,0.006 -1.54916,0.37719 -2.07477,1.11399 -0.52561,0.73682 -0.79586,1.804 -0.81076,3.20154 0.0242,1.37866 0.28222,2.43254 0.77405,3.16163 0.49183,0.7291 1.14884,1.09671 1.97104,1.10282 0.9246,-0.006 1.63534,-0.3833 2.13222,-1.13155 0.49688,-0.74824 0.74798,-1.83085 0.75331,-3.24781 -0.005,-1.33131 -0.24393,-2.36178 -0.7166,-3.09142 -0.47268,-0.72962 -1.14884,-1.09935 -2.02849,-1.1092 z m -0.0638,0.86821 c 0.57854,0.0133 1.00467,0.32186 1.27838,0.92567 0.27371,0.60382 0.40937,1.42309 0.40698,2.45781 0.001,1.07143 -0.13833,1.91305 -0.41815,2.52484 -0.27983,0.61179 -0.70649,0.92354 -1.27998,0.93524 -0.5171,-0.006 -0.92567,-0.30031 -1.22571,-0.88258 -0.30004,-0.58226 -0.45326,-1.41589 -0.45964,-2.5009 0.009,-1.13287 0.16944,-1.99204 0.48039,-2.5775 0.31095,-0.58545 0.71686,-0.87965 1.21773,-0.88258 z"
           style=""
           id="path14613" />
        <path
           d="m 308.86476,150.82003 c -0.85757,0.006 -1.54916,0.37719 -2.07477,1.11399 -0.52561,0.73682 -0.79586,1.804 -0.81076,3.20154 0.0242,1.37866 0.28223,2.43254 0.77405,3.16163 0.49183,0.7291 1.14884,1.09671 1.97104,1.10282 0.9246,-0.006 1.63534,-0.3833 2.13223,-1.13155 0.49687,-0.74824 0.74797,-1.83085 0.7533,-3.24781 -0.005,-1.33131 -0.24393,-2.36178 -0.7166,-3.09142 -0.47268,-0.72962 -1.14884,-1.09935 -2.02849,-1.1092 z m -0.0638,0.86821 c 0.57853,0.0133 1.00466,0.32186 1.27837,0.92567 0.27371,0.60382 0.40937,1.42309 0.40698,2.45781 0.001,1.07143 -0.13832,1.91305 -0.41815,2.52484 -0.27983,0.61179 -0.70649,0.92354 -1.27997,0.93524 -0.5171,-0.006 -0.92567,-0.30031 -1.22571,-0.88258 -0.30005,-0.58226 -0.45326,-1.41589 -0.45965,-2.5009 0.009,-1.13287 0.16944,-1.99204 0.48039,-2.5775 0.31095,-0.58545 0.71686,-0.87965 1.21774,-0.88258 z"
           style=""
           id="path14615" />
      </g>
      <g
         style="font-size:12.7680006px;font-style:normal;font-variant:normal;font-weight:normal;font-stretch:normal;text-align:end;line-height:125%;letter-spacing:0px;word-spacing:0px;text-anchor:end;fill:#000000;fill-opacity:1;stroke:none;font-family:Myriad Pro;-inkscape-font-specification:Myriad Pro"
         id="text9187">
        <path
           d="m 48.019983,141.35488 c -0.857576,0.006 -1.549166,0.37719 -2.074774,1.11399 -0.52561,0.73682 -0.795862,1.804 -0.810757,3.20154 0.0242,1.37866 0.282221,2.43254 0.77405,3.16163 0.491826,0.7291 1.148837,1.09671 1.971035,1.10282 0.9246,-0.006 1.635342,-0.3833 2.132228,-1.13155 0.496876,-0.74824 0.747976,-1.83085 0.753302,-3.24781 -0.0051,-1.33131 -0.243924,-2.36178 -0.716595,-3.09142 -0.472681,-0.72962 -1.148843,-1.09935 -2.028489,-1.1092 z m -0.06384,0.86821 c 0.578538,0.0133 1.004664,0.32186 1.278379,0.92567 0.273706,0.60382 0.409364,1.42309 0.406975,2.45781 0.0011,1.07144 -0.138323,1.91305 -0.418147,2.52484 -0.279832,0.61179 -0.70649,0.92354 -1.279975,0.93524 -0.5171,-0.006 -0.925671,-0.30031 -1.225713,-0.88258 -0.300046,-0.58226 -0.453259,-1.41589 -0.459642,-2.50089 0.0093,-1.13288 0.169439,-1.99205 0.48039,-2.57751 0.310948,-0.58545 0.716858,-0.87965 1.217733,-0.88258 z"
           style=""
           id="path14618" />
        <path
           d="m 52.650602,149.93486 c 0.238597,-0.005 0.425327,-0.0814 0.560189,-0.22982 0.134858,-0.14842 0.203485,-0.33994 0.205881,-0.57455 -0.0035,-0.24019 -0.07315,-0.43331 -0.209073,-0.57934 -0.135926,-0.14603 -0.317336,-0.22104 -0.544229,-0.22503 -0.227428,0.004 -0.410966,0.079 -0.550613,0.22503 -0.139649,0.14603 -0.211468,0.33915 -0.215457,0.57934 0.0035,0.23461 0.07315,0.42613 0.209073,0.57455 0.135923,0.14843 0.317333,0.22504 0.544229,0.22982 z"
           style=""
           id="path14620" />
        <path
           d="m 57.22192,141.35488 c -0.857575,0.006 -1.549166,0.37719 -2.074773,1.11399 -0.52561,0.73682 -0.795862,1.804 -0.810758,3.20154 0.02421,1.37866 0.282222,2.43254 0.774051,3.16163 0.491826,0.7291 1.148837,1.09671 1.971034,1.10282 0.9246,-0.006 1.635343,-0.3833 2.132229,-1.13155 0.496875,-0.74824 0.747976,-1.83085 0.753302,-3.24781 -0.0051,-1.33131 -0.243925,-2.36178 -0.716595,-3.09142 -0.472681,-0.72962 -1.148843,-1.09935 -2.02849,-1.1092 z m -0.06384,0.86821 c 0.578539,0.0133 1.004665,0.32186 1.27838,0.92567 0.273705,0.60382 0.409364,1.42309 0.406975,2.45781 0.0011,1.07144 -0.138324,1.91305 -0.418147,2.52484 -0.279833,0.61179 -0.706491,0.92354 -1.279976,0.93524 -0.5171,-0.006 -0.92567,-0.30031 -1.225712,-0.88258 -0.300046,-0.58226 -0.45326,-1.41589 -0.459642,-2.50089 0.0093,-1.13288 0.169438,-1.99205 0.48039,-2.57751 0.310948,-0.58545 0.716858,-0.87965 1.217732,-0.88258 z"
           style=""
           id="path14622" />
      </g>
      <g
         style="font-size:12.7680006px;font-style:normal;font-variant:normal;font-weight:normal;font-stretch:normal;text-align:end;line-height:125%;letter-spacing:0px;word-spacing:0px;text-anchor:end;fill:#000000;fill-opacity:1;stroke:none;font-family:Myriad Pro;-inkscape-font-specification:Myriad Pro"
         id="text9191">
        <path
           d="m 48.237035,107.28913 c -0.857575,0.006 -1.549166,0.37719 -2.074773,1.11399 -0.52561,0.73682 -0.795863,1.804 -0.810758,3.20154 0.02421,1.37866 0.282222,2.43254 0.77405,3.16163 0.491826,0.7291 1.148837,1.09671 1.971035,1.10282 0.9246,-0.006 1.635342,-0.3833 2.132229,-1.13155 0.496875,-0.74824 0.747976,-1.83085 0.753302,-3.24781 -0.0051,-1.33131 -0.243925,-2.36178 -0.716595,-3.09142 -0.472681,-0.72962 -1.148844,-1.09935 -2.02849,-1.1092 z m -0.06384,0.86821 c 0.578539,0.0133 1.004665,0.32186 1.278379,0.92567 0.273706,0.60382 0.409364,1.42309 0.406975,2.45781 0.0011,1.07144 -0.138323,1.91305 -0.418146,2.52484 -0.279833,0.61179 -0.706491,0.92354 -1.279976,0.93524 -0.5171,-0.006 -0.92567,-0.30031 -1.225712,-0.88258 -0.300046,-0.58226 -0.45326,-1.41589 -0.459642,-2.5009 0.0093,-1.13287 0.169438,-1.99204 0.48039,-2.5775 0.310948,-0.58545 0.716858,-0.87965 1.217732,-0.88258 z"
           style=""
           id="path14625" />
        <path
           d="m 52.867655,115.86911 c 0.238597,-0.005 0.425326,-0.0814 0.560188,-0.22982 0.134859,-0.14842 0.203486,-0.33994 0.205882,-0.57455 -0.0035,-0.24019 -0.07315,-0.43331 -0.209074,-0.57934 -0.135926,-0.14603 -0.317335,-0.22104 -0.544229,-0.22503 -0.227428,0.004 -0.410965,0.079 -0.550613,0.22503 -0.139649,0.14603 -0.211468,0.33915 -0.215457,0.57934 0.0035,0.23461 0.07315,0.42613 0.209074,0.57455 0.135923,0.14843 0.317332,0.22504 0.544229,0.22982 z"
           style=""
           id="path14627" />
        <path
           d="m 59.967004,115.72867 0,-0.93205 -3.728208,0 0,-0.0255 0.663928,-0.61286 c 0.884435,-0.82724 1.579749,-1.58906 2.085945,-2.28544 0.506186,-0.69637 0.764202,-1.41988 0.77405,-2.17053 0.0058,-0.62003 -0.194183,-1.17064 -0.600088,-1.65184 -0.405916,-0.48118 -1.052819,-0.73494 -1.940711,-0.76128 -0.480925,0.005 -0.920351,0.0846 -1.31828,0.2394 -0.397932,0.15481 -0.741599,0.35591 -1.031002,0.60328 l 0.357499,0.7916 c 0.19391,-0.1689 0.441287,-0.32584 0.742131,-0.47081 0.300839,-0.14496 0.640783,-0.2221 1.019831,-0.23142 0.610458,0.0149 1.039776,0.17982 1.287955,0.49475 0.24817,0.31495 0.367869,0.69054 0.359095,1.12677 -0.0019,0.60222 -0.253499,1.22997 -0.754898,1.88325 -0.501407,0.65329 -1.279712,1.47256 -2.334918,2.45781 l -0.880981,0.85545 0,0.68946 z"
           style=""
           id="path14629" />
      </g>
      <g
         style="font-size:12.7680006px;font-style:normal;font-variant:normal;font-weight:normal;font-stretch:normal;text-align:end;line-height:125%;letter-spacing:0px;word-spacing:0px;text-anchor:end;fill:#000000;fill-opacity:1;stroke:none;font-family:Myriad Pro;-inkscape-font-specification:Myriad Pro"
         id="text9195">
        <path
           d="m 47.84123,73.223394 c -0.857576,0.0059 -1.549166,0.377191 -2.074774,1.113993 -0.52561,0.736818 -0.795862,1.803995 -0.810757,3.201535 0.0242,1.378663 0.282221,2.432541 0.77405,3.161635 0.491826,0.729097 1.148837,1.096704 1.971035,1.102823 0.9246,-0.0061 1.635342,-0.383301 2.132228,-1.13155 0.496876,-0.748247 0.747976,-1.830852 0.753303,-3.247818 -0.0051,-1.331308 -0.243925,-2.361778 -0.716595,-3.091413 -0.472681,-0.72962 -1.148844,-1.099355 -2.02849,-1.109205 z m -0.06384,0.868212 c 0.578538,0.01331 1.004664,0.321863 1.278379,0.925668 0.273706,0.603819 0.409364,1.423087 0.406975,2.457809 0.0011,1.071438 -0.138323,1.91305 -0.418147,2.52484 -0.279832,0.611793 -0.70649,0.923541 -1.279975,0.935244 -0.5171,-0.0061 -0.925671,-0.30031 -1.225712,-0.882577 -0.300047,-0.582265 -0.45326,-1.415897 -0.459643,-2.5009 0.0093,-1.132874 0.169439,-1.992042 0.480391,-2.577507 0.310947,-0.585451 0.716858,-0.879643 1.217732,-0.882577 z"
           style=""
           id="path14632" />
        <path
           d="m 52.471849,81.80338 c 0.238597,-0.0048 0.425327,-0.0814 0.560189,-0.229822 0.134858,-0.148425 0.203485,-0.339943 0.205881,-0.574552 -0.0035,-0.240194 -0.07315,-0.433308 -0.209073,-0.579341 -0.135926,-0.146031 -0.317336,-0.221042 -0.544229,-0.225033 -0.227428,0.004 -0.410966,0.079 -0.550613,0.225034 -0.139649,0.146033 -0.211468,0.339146 -0.215457,0.57934 0.0035,0.234609 0.07315,0.426127 0.209073,0.574552 0.135923,0.148427 0.317333,0.225034 0.544229,0.229822 z"
           style=""
           id="path14634" />
        <path
           d="m 58.805129,81.662933 0,-2.259907 1.161873,0 0,-0.88098 -1.161873,0 0,-5.158206 -1.212945,0 -3.702672,5.298652 0,0.740534 3.855886,0 0,2.259907 z m -3.77928,-3.140887 0,-0.02554 2.030086,-2.821692 c 0.113311,-0.188319 0.22503,-0.379837 0.335156,-0.574552 0.110119,-0.194703 0.228221,-0.411756 0.354307,-0.65116 l 0.0383,0 c -0.02554,0.434113 -0.03831,0.868219 -0.0383,1.302319 l 0,2.770621 z"
           style=""
           id="path14636" />
      </g>
      <g
         style="font-size:12.7680006px;font-style:normal;font-variant:normal;font-weight:normal;font-stretch:normal;text-align:end;line-height:125%;letter-spacing:0px;word-spacing:0px;text-anchor:end;fill:#000000;fill-opacity:1;stroke:none;font-family:Myriad Pro;-inkscape-font-specification:Myriad Pro"
         id="text9199">
        <path
           d="m 47.981676,39.157647 c -0.857576,0.0059 -1.549167,0.377191 -2.074774,1.113994 -0.52561,0.736817 -0.795862,1.803994 -0.810757,3.201535 0.02421,1.378663 0.282221,2.43254 0.77405,3.161635 0.491826,0.729097 1.148837,1.096704 1.971034,1.102822 0.924601,-0.0061 1.635343,-0.383301 2.132229,-1.131549 0.496876,-0.748247 0.747976,-1.830852 0.753302,-3.247819 -0.0051,-1.331307 -0.243925,-2.361777 -0.716595,-3.091412 -0.472681,-0.72962 -1.148843,-1.099355 -2.028489,-1.109206 z m -0.06384,0.868213 c 0.578539,0.01331 1.004665,0.321863 1.27838,0.925668 0.273706,0.603818 0.409364,1.423087 0.406975,2.457809 0.0011,1.071437 -0.138323,1.91305 -0.418147,2.524839 -0.279833,0.611794 -0.706491,0.923541 -1.279975,0.935244 -0.5171,-0.0061 -0.925671,-0.300309 -1.225713,-0.882577 -0.300046,-0.582264 -0.45326,-1.415896 -0.459642,-2.500899 0.0093,-1.132875 0.169438,-1.992043 0.48039,-2.577507 0.310948,-0.585451 0.716858,-0.879643 1.217732,-0.882577 z"
           style=""
           id="path14639" />
        <path
           d="m 52.612295,47.737633 c 0.238597,-0.0048 0.425327,-0.0814 0.560189,-0.229821 0.134858,-0.148426 0.203485,-0.339943 0.205881,-0.574552 -0.0035,-0.240194 -0.07315,-0.433308 -0.209073,-0.579341 -0.135926,-0.146031 -0.317336,-0.221042 -0.544229,-0.225033 -0.227428,0.004 -0.410966,0.079 -0.550613,0.225033 -0.139649,0.146034 -0.211468,0.339147 -0.215457,0.579341 0.0035,0.234609 0.07315,0.426126 0.209073,0.574552 0.135923,0.148426 0.317333,0.225033 0.544229,0.229821 z"
           style=""
           id="path14641" />
        <path
           d="m 59.14986,39.170415 c -0.10268,-5.23e-4 -0.22291,0.0037 -0.360692,0.01277 -0.137791,0.0091 -0.289941,0.02608 -0.45645,0.05107 -0.525613,0.06465 -1.012918,0.200304 -1.461917,0.406975 -0.449005,0.206687 -0.846935,0.479599 -1.193792,0.818738 -0.41602,0.411237 -0.75224,0.93259 -1.00866,1.564059 -0.256421,0.631481 -0.388355,1.357119 -0.395802,2.176917 0.01144,1.091386 0.279029,1.950554 0.802777,2.577506 0.523746,0.626955 1.23502,0.946682 2.133825,0.959184 0.869006,-0.02687 1.544105,-0.324249 2.025298,-0.892152 0.481182,-0.567902 0.725366,-1.245128 0.732554,-2.031682 -0.01251,-0.821128 -0.246052,-1.470691 -0.700634,-1.948692 -0.454594,-0.47799 -1.055213,-0.722175 -1.801861,-0.732554 -0.460976,0.0072 -0.860502,0.10135 -1.198581,0.282489 -0.338084,0.181148 -0.60674,0.406181 -0.80597,0.675099 l -0.0383,0 c 0.09389,-0.702226 0.378511,-1.327849 0.853849,-1.876872 0.475333,-0.54901 1.152559,-0.906509 2.031682,-1.072498 0.160391,-0.02526 0.312009,-0.04175 0.454854,-0.04948 0.142835,-0.0077 0.272109,-0.0082 0.387823,-0.0016 z m -1.940711,7.699005 c -0.588388,-0.01356 -1.036325,-0.238597 -1.343815,-0.675099 -0.307494,-0.436499 -0.468156,-1.003071 -0.481986,-1.699718 5.31e-4,-0.10214 0.01224,-0.194706 0.03511,-0.277701 0.02287,-0.08299 0.05373,-0.156402 0.09257,-0.220245 0.158798,-0.305094 0.380639,-0.550343 0.665523,-0.735747 0.28488,-0.185395 0.599288,-0.280621 0.943224,-0.28568 0.523743,0.0051 0.938166,0.173701 1.243268,0.505926 0.305093,0.332234 0.460967,0.797727 0.467622,1.396482 -0.0069,0.602484 -0.155879,1.082874 -0.446874,1.441169 -0.291005,0.358299 -0.682551,0.541836 -1.174641,0.550613 z"
           style=""
           id="path14643" />
      </g>
      <g
         style="font-size:12.7680006px;font-style:normal;font-variant:normal;font-weight:normal;font-stretch:normal;text-align:end;line-height:125%;letter-spacing:0px;word-spacing:0px;text-anchor:end;fill:#000000;fill-opacity:1;stroke:none;font-family:Myriad Pro;-inkscape-font-specification:Myriad Pro"
         id="text9203">
        <path
           d="m 48.032754,5.0919077 c -0.857575,0.00586 -1.549166,0.3771911 -2.074773,1.1139937 -0.52561,0.7368172 -0.795862,1.8039945 -0.810758,3.2015349 0.02421,1.3786627 0.282222,2.4325407 0.77405,3.1616347 0.491827,0.729097 1.148837,1.096704 1.971035,1.102823 0.9246,-0.0061 1.635342,-0.383301 2.132229,-1.13155 0.496875,-0.748247 0.747976,-1.830852 0.753302,-3.2478182 C 50.772779,7.9612183 50.533914,6.9307485 50.061244,6.2011133 49.588563,5.4714929 48.912401,5.101758 48.032754,5.0919077 z m -0.06384,0.8682128 c 0.578539,0.013307 1.004665,0.3218631 1.27838,0.925668 0.273705,0.6038182 0.409364,1.4230869 0.406975,2.4578086 0.0011,1.0714379 -0.138324,1.9130499 -0.418147,2.5248399 -0.279833,0.611793 -0.706491,0.923541 -1.279976,0.935244 -0.5171,-0.0061 -0.92567,-0.300309 -1.225712,-0.882577 -0.300046,-0.582265 -0.45326,-1.415897 -0.459642,-2.5008999 0.0093,-1.1328743 0.169438,-1.9920424 0.48039,-2.577507 0.310948,-0.5854512 0.716858,-0.8796431 1.217732,-0.8825766 z"
           style=""
           id="path14646" />
        <path
           d="m 52.663374,13.671894 c 0.238597,-0.0048 0.425326,-0.0814 0.560189,-0.229821 0.134858,-0.148426 0.203485,-0.339944 0.205881,-0.574553 -0.0035,-0.240194 -0.07315,-0.433308 -0.209073,-0.579341 -0.135927,-0.146031 -0.317336,-0.221042 -0.544229,-0.225033 -0.227429,0.004 -0.410966,0.079 -0.550613,0.225034 -0.139649,0.146033 -0.211468,0.339146 -0.215458,0.57934 0.0035,0.234609 0.07315,0.426127 0.209074,0.574553 0.135923,0.148426 0.317332,0.225033 0.544229,0.229821 z"
           style=""
           id="path14648" />
        <path
           d="m 57.145317,13.671894 c 0.810222,-0.01037 1.478405,-0.232215 2.00455,-0.665524 0.526136,-0.433308 0.798516,-1.01584 0.817142,-1.747597 -0.0051,-0.505125 -0.15455,-0.937635 -0.448471,-1.2975321 -0.293931,-0.3598894 -0.70197,-0.6423774 -1.224116,-0.8474648 l 0,-0.038304 c 0.503793,-0.2492341 0.859164,-0.545554 1.066115,-0.8889607 0.206939,-0.343396 0.306954,-0.6939791 0.300044,-1.0517504 -6e-6,-0.5375723 -0.201099,-1.0073219 -0.603281,-1.4092502 -0.402191,-0.4019128 -1.005471,-0.6131138 -1.80984,-0.6336036 -0.74373,0.00985 -1.353393,0.2136035 -1.828993,0.6112602 -0.475603,0.3976724 -0.721383,0.930197 -0.737342,1.5975754 -0.0027,0.3633571 0.101609,0.7091524 0.312812,1.0373867 0.211199,0.3282448 0.545291,0.603817 1.002275,0.8267174 l 0.01277,0.038304 c -0.515503,0.2170574 -0.91769,0.5107173 -1.206561,0.8809811 -0.288873,0.37027 -0.435703,0.817144 -0.44049,1.340622 0.0074,0.624296 0.254292,1.150436 0.740534,1.578424 0.48624,0.427988 1.167191,0.650893 2.042854,0.668716 z m 0.02554,-0.817142 c -0.535188,-0.0133 -0.949079,-0.171833 -1.241673,-0.475602 -0.292598,-0.303767 -0.43198,-0.67297 -0.418146,-1.10761 0.0016,-0.400056 0.129273,-0.749043 0.383035,-1.046962 0.253759,-0.2979127 0.624025,-0.5192217 1.110802,-0.6639277 0.567633,0.152154 1.012379,0.368143 1.334239,0.6479677 0.321851,0.279831 0.485704,0.668186 0.491562,1.165065 -0.0061,0.43597 -0.156677,0.789745 -0.451663,1.061326 -0.294994,0.271584 -0.697713,0.411498 -1.208156,0.419743 z m 0.01277,-6.9584706 c 0.499803,0.014903 0.859962,0.1574772 1.080478,0.4277223 0.220506,0.2702594 0.328501,0.5788152 0.323984,0.9256683 -0.008,0.3771892 -0.129279,0.6921288 -0.363884,0.9448199 C 57.989586,8.4471936 57.689542,8.634455 57.324067,8.7562767 56.839152,8.632593 56.455585,8.4490555 56.173366,8.2056634 55.891141,7.9622821 55.746971,7.6351067 55.740855,7.2241363 55.742715,6.8560038 55.86667,6.5453201 56.112718,6.2920843 56.358763,6.0388629 56.71573,5.9069287 57.183621,5.8962814 z"
           style=""
           id="path14650" />
      </g>
      <g
         style="font-size:12.7680006px;font-style:normal;font-variant:normal;font-weight:normal;font-stretch:normal;text-align:end;line-height:125%;letter-spacing:0px;word-spacing:0px;text-anchor:end;fill:#000000;fill-opacity:1;stroke:none;font-family:Myriad Pro;-inkscape-font-specification:Myriad Pro"
         id="text9207">
        <path
           d="m 47.688019,-20.534292 1.085266,0 0,-8.299094 -0.957588,0 -1.813032,0.970356 0.217053,0.855445 1.442765,-0.778838 0.02554,0 z"
           style=""
           id="path14653" />
        <path
           d="m 52.650602,-20.393846 c 0.238597,-0.0048 0.425327,-0.0814 0.560189,-0.229821 0.134858,-0.148426 0.203485,-0.339943 0.205881,-0.574553 -0.0035,-0.240194 -0.07315,-0.433307 -0.209073,-0.579341 -0.135926,-0.14603 -0.317336,-0.221041 -0.544229,-0.225032 -0.227428,0.004 -0.410966,0.079 -0.550613,0.225033 -0.139649,0.146033 -0.211468,0.339147 -0.215457,0.57934 0.0035,0.23461 0.07315,0.426127 0.209073,0.574553 0.135923,0.148426 0.317333,0.225033 0.544229,0.229821 z"
           style=""
           id="path14655" />
        <path
           d="m 57.22192,-28.973832 c -0.857575,0.0059 -1.549166,0.377191 -2.074773,1.113994 -0.52561,0.736817 -0.795862,1.803994 -0.810758,3.201535 0.02421,1.378663 0.282222,2.43254 0.774051,3.161635 0.491826,0.729097 1.148837,1.096704 1.971034,1.102822 0.9246,-0.0061 1.635343,-0.383301 2.132229,-1.13155 0.496875,-0.748246 0.747976,-1.830851 0.753302,-3.247818 -0.0051,-1.331307 -0.243925,-2.361777 -0.716595,-3.091412 -0.472681,-0.729621 -1.148843,-1.099356 -2.02849,-1.109206 z m -0.06384,0.868213 c 0.578539,0.01331 1.004665,0.321863 1.27838,0.925668 0.273705,0.603818 0.409364,1.423087 0.406975,2.457808 0.0011,1.071438 -0.138324,1.91305 -0.418147,2.52484 -0.279833,0.611793 -0.706491,0.923541 -1.279976,0.935244 -0.5171,-0.0061 -0.92567,-0.300309 -1.225712,-0.882577 -0.300046,-0.582264 -0.45326,-1.415897 -0.459642,-2.500899 0.0093,-1.132875 0.169438,-1.992043 0.48039,-2.577508 0.310948,-0.585451 0.716858,-0.879643 1.217732,-0.882576 z"
           style=""
           id="path14657" />
      </g>
    </g>
    <g
       transform="matrix(0.87765395,0,0,0.87765395,16.682164,-53.091102)"
       style="fill:none;stroke:#000000;stroke-width:0.91152102;stroke-linecap:butt;stroke-linejoin:round;stroke-miterlimit:4;stroke-opacity:1;stroke-dasharray:none;display:inline"
       id="g10483">
      <path
         inkscape:connector-curvature="0"
         id="path10485"
         style="fill:none;stroke:#000000;stroke-width:0.91152102;stroke-linecap:butt;stroke-linejoin:round;stroke-miterlimit:4;stroke-opacity:1;stroke-dasharray:none"
         d="m 55.3162,226.44 270.5388,0 0,-213.48 -270.5388,0 z" />
    </g>
  </g>
</svg>
